<svg width="1188" height="936" viewBox="0 0 1188 936" fill="none" xmlns="http://www.w3.org/2000/svg">
<g filter="url(#filter0_d)">
<ellipse cx="587" cy="469" rx="427" ry="417" fill="white"/>
</g>
<path d="M615.07 726.198V762.528H625.4L623.4 723.528L615.07 726.198Z" fill="#AAABB0"/>
<path d="M459.9 718.868V755.198H470.24L468.24 716.198L459.9 718.868Z" fill="#AAABB0"/>
<path d="M640.4 665.538C640.4 661.854 637.416 658.868 633.735 658.868C630.054 658.868 627.07 661.854 627.07 665.538V716.868C627.07 720.552 630.054 723.538 633.735 723.538C637.416 723.538 640.4 720.552 640.4 716.868V665.538Z" fill="#AAABB0"/>
<path d="M469.4 651.198C469.4 647.514 466.416 644.528 462.735 644.528C459.054 644.528 456.07 647.514 456.07 651.198V716.858C456.07 720.542 459.054 723.528 462.735 723.528C466.416 723.528 469.4 720.542 469.4 716.858V651.198Z" fill="#AAABB0"/>
<path d="M657.41 271.868C657.41 271.868 670.74 266.198 672.74 271.868C674.74 277.538 675.74 326.538 675.74 326.538H663.07L657.41 271.868Z" fill="#AAABB0"/>
<path d="M511.41 271.868C511.41 271.868 498.07 266.198 496.07 271.868C494.07 277.538 493.07 326.538 493.07 326.538H505.74L511.41 271.868Z" fill="#AAABB0"/>
<path d="M513.4 223.198L511.4 263.868H520.4V222.198L513.4 223.198Z" fill="#AAABB0"/>
<path d="M505.74 326.538L508.41 267.868C508.41 267.868 507.41 254.868 539.07 258.868C570.73 262.868 663.41 270.868 663.41 270.868V326.538H505.74Z" fill="#33323D"/>
<path d="M632.41 635.538L627.41 725.198C627.41 725.198 554.07 765.868 465.07 727.198L473.07 632.868L632.41 635.538Z" fill="#33323D"/>
<path d="M562.74 282.528L564.4 340.528H667.74L661.74 263.868L562.74 282.528Z" fill="#444053"/>
<path d="M573.24 597.198H475.9V720.528H573.24V597.198Z" fill="#4C4981"/>
<path d="M537.41 647.538C537.41 647.538 551.41 636.538 553.74 639.868C556.07 643.198 545.42 657.538 541.08 655.868C536.74 654.198 537.41 647.538 537.41 647.538Z" fill="#FFB9B9"/>
<path d="M925.97 323.198H287V643.198H925.97V323.198Z" fill="#504F60"/>
<path d="M506.07 220.868C506.07 220.868 501.07 174.198 506.07 168.538C511.07 162.878 595.07 109.198 672.74 172.198C672.74 172.198 680.07 172.538 678.74 189.198C677.956 199.743 678.01 210.332 678.9 220.868C678.9 220.868 511.74 232.868 506.07 220.868Z" fill="#33323D"/>
<path opacity="0.1" d="M506.07 220.868C506.07 220.868 501.07 174.198 506.07 168.538C511.07 162.878 595.07 109.198 672.74 172.198C672.74 172.198 680.07 172.538 678.74 189.198C677.956 199.743 678.01 210.332 678.9 220.868C678.9 220.868 511.74 232.868 506.07 220.868Z" fill="black"/>
<path d="M506.07 226.868C506.07 226.868 501.07 180.198 506.07 174.538C511.07 168.878 595.07 115.198 672.74 178.198C672.74 178.198 680.07 178.538 678.74 195.198C677.956 205.743 678.01 216.332 678.9 226.868C678.9 226.868 511.74 238.868 506.07 226.868Z" fill="#33323D"/>
<path d="M681.74 205.538C681.74 205.538 687.07 225.538 685.41 228.868C683.75 232.198 684.05 241.538 684.05 241.538C684.05 241.538 684.41 247.538 681.74 248.198C679.07 248.858 676.74 249.198 678.9 251.198C681.06 253.198 678.9 256.198 678.9 256.198C678.9 256.198 677.73 260.868 678.9 263.868C680.07 266.868 672.06 268.118 672.74 271.868C673.42 275.618 675.66 286.198 672.74 286.538C669.82 286.878 673.74 299.868 671.11 299.868C668.48 299.868 666.61 323.198 666.61 323.198C666.61 323.198 648.11 307.538 635.78 311.868C635.78 311.868 636.78 298.868 640.78 294.198C644.78 289.528 643.57 277.538 643.57 277.538L663.41 217.868L681.74 205.538Z" fill="#4C4981"/>
<path d="M582.74 481.318C578.41 486.108 573.74 460.528 573.74 460.528C573.74 460.528 561.41 477.528 553.41 466.198C547.87 458.348 552.24 436.108 555.41 423.198C556.83 417.458 558.03 413.558 558.03 413.558L576.03 410.558C576.03 410.558 576.09 414.478 576.49 419.238C577.03 425.668 578.2 433.648 580.69 435.558C585.08 438.868 587.08 476.488 582.74 481.318Z" fill="#AE6E79"/>
<path opacity="0.1" d="M573.41 181.868C573.41 181.868 542.07 181.538 534.41 198.198C526.75 214.858 526.41 220.538 523.41 223.198C520.41 225.858 556.07 239.868 556.07 239.868L557.74 297.198C557.74 297.198 564.74 290.108 576.07 293.318C587.4 296.528 601.74 293.318 601.74 293.318C601.74 293.318 601.07 292.108 610.41 293.318C619.75 294.528 649.41 278.868 649.41 278.868C649.41 278.868 649.9 253.788 649.24 248.448C648.58 243.108 670.4 203.868 670.4 203.868C670.4 203.868 687.4 187.538 669.74 181.868C669.74 181.868 663.49 172.448 647.41 172.538C631.33 172.628 573.41 181.868 573.41 181.868Z" fill="black"/>
<path d="M573.41 180.868C573.41 180.868 542.07 180.538 534.41 197.198C526.75 213.858 526.41 219.538 523.41 222.198C520.41 224.858 556.07 238.868 556.07 238.868L557.74 296.198C557.74 296.198 564.74 289.108 576.07 292.318C587.4 295.528 601.74 292.318 601.74 292.318C601.74 292.318 601.07 291.108 610.41 292.318C619.75 293.528 649.41 277.868 649.41 277.868C649.41 277.868 661.07 258.868 660.41 253.538C659.75 248.208 683.74 207.868 683.74 207.868C683.74 207.868 687.41 186.538 669.74 180.868C669.74 180.868 663.49 171.448 647.41 171.538C631.33 171.628 573.41 180.868 573.41 180.868Z" fill="#4C4981"/>
<path opacity="0.1" d="M576.57 419.208C569.7 417.068 558.92 421.788 555.49 423.208C556.91 417.468 558.11 413.568 558.11 413.568L576.11 410.568C576.11 410.568 576.14 414.488 576.57 419.208Z" fill="black"/>
<path d="M533.07 222.198H523.41C523.41 222.198 521.41 242.538 523.41 248.538C525.41 254.538 526.41 253.668 525.74 258.108C525.07 262.548 530.41 269.348 530.41 269.348C530.41 269.348 531.07 286.108 534.41 292.348C537.75 298.588 530.74 326.568 530.74 326.568C532.652 331.398 535.481 335.813 539.07 339.568C544.74 345.228 547.74 366.228 546.07 374.228C544.4 382.228 550.74 385.228 550.74 385.228C550.74 385.228 553.41 422.568 554.41 422.568C555.41 422.568 574.74 412.568 580.74 421.228L576.07 386.898L576.41 320.568C576.41 320.568 570.07 312.228 573.41 304.898C576.75 297.568 570.74 280.228 570.74 280.228L562.07 241.568L533.07 222.198Z" fill="#4C4981"/>
<path d="M473.07 749.198C473.07 749.198 459.07 746.198 458.74 749.198C458.41 752.198 442.07 782.868 462.41 791.868C482.75 800.868 537.07 820.198 625.41 795.198C625.41 795.198 631.07 797.198 629.74 784.868C628.41 772.538 628.41 758.868 628.41 758.868C628.41 758.868 615.07 755.198 605.07 756.538C595.07 757.878 508.07 775.538 473.07 749.198Z" fill="#33323D"/>
<path opacity="0.1" d="M473.07 749.198C473.07 749.198 459.07 746.198 458.74 749.198C458.41 752.198 442.07 782.868 462.41 791.868C482.75 800.868 537.07 820.198 625.41 795.198C625.41 795.198 631.07 797.198 629.74 784.868C628.41 772.538 628.41 758.868 628.41 758.868C628.41 758.868 615.07 755.198 605.07 756.538C595.07 757.878 508.07 775.538 473.07 749.198Z" fill="black"/>
<path d="M473.07 745.198C473.07 745.198 459.07 742.198 458.74 745.198C458.41 748.198 442.07 778.868 462.41 787.868C482.75 796.868 537.07 816.198 625.41 791.198C625.41 791.198 631.07 793.198 629.74 780.868C628.41 768.538 628.41 754.868 628.41 754.868C628.41 754.868 615.07 751.198 605.07 752.538C595.07 753.878 508.07 771.538 473.07 745.198Z" fill="#33323D"/>
<path d="M554.71 234.178C553.85 239.068 551.9 243.768 551.6 248.718C551.3 253.668 553.21 259.298 557.78 261.238C559.055 261.619 560.291 262.121 561.47 262.738C563.23 263.928 563.95 266.168 564.32 268.268C564.811 270.979 564.929 273.745 564.67 276.488C564.42 279.248 563.83 282.218 565.19 284.628C567.58 288.898 573.81 288.268 578.55 287.068L576.92 299.698C576.79 300.698 576.71 301.828 577.44 302.508C577.785 302.751 578.175 302.922 578.587 303.012C578.999 303.101 579.426 303.107 579.84 303.028C583.96 302.768 588.2 302.198 591.73 300.028C595.26 297.858 597.89 293.818 597.22 289.748C596.44 285.028 591.56 281.278 592.22 276.538C592.73 272.868 596.32 270.538 598.68 267.718C602.95 262.558 603.18 254.718 599.83 248.878C596.48 243.038 590.01 239.418 583.35 238.758C579.66 238.388 575.82 238.838 572.35 237.558C571.143 237.115 570.054 236.399 569.169 235.466C568.285 234.533 567.628 233.407 567.25 232.178" fill="#444053"/>
<path d="M438.41 678.868L441.9 671.268C441.9 671.268 460.74 653.718 465.07 652.488C469.4 651.258 487.07 645.898 489.74 645.898C492.41 645.898 541.08 643.228 541.08 643.228L546.74 656.568L485.66 669.978L465.07 684.978L438.41 678.868Z" fill="#767D9F"/>
<path d="M585.16 474.198L581.97 498.748L580.74 508.198L566.41 510.198C566.41 510.198 564.86 506.878 562.67 501.778C556.02 486.298 543.5 454.378 550.76 448.868C560.41 441.528 562.76 465.868 562.76 465.868L573.76 460.528L585.16 474.198Z" fill="#FFB9B9"/>
<path d="M582.77 519.868H510.4V629.198H582.77V519.868Z" fill="white"/>
<path opacity="0.1" d="M582.77 519.868H510.4V629.198H582.77V519.868Z" fill="black"/>
<path d="M615.297 525.788L543.705 515.203L527.715 623.358L599.306 633.942L615.297 525.788Z" fill="white"/>
<path d="M587.294 530.966L550.444 525.518L542.214 581.183L579.064 586.631L587.294 530.966Z" fill="#536DFE"/>
<path d="M582.908 603.625L538.264 597.024L536.476 609.113L581.121 615.713L582.908 603.625Z" fill="#536DFE"/>
<path opacity="0.1" d="M601.74 244.028C624.842 244.028 643.57 225.3 643.57 202.198C643.57 179.096 624.842 160.368 601.74 160.368C578.638 160.368 559.91 179.096 559.91 202.198C559.91 225.3 578.638 244.028 601.74 244.028Z" fill="black"/>
<path d="M601.74 243.028C624.842 243.028 643.57 224.3 643.57 201.198C643.57 178.096 624.842 159.368 601.74 159.368C578.638 159.368 559.91 178.096 559.91 201.198C559.91 224.3 578.638 243.028 601.74 243.028Z" fill="#AE6E79"/>
<path d="M567.25 232.198C566.966 231.121 567.068 229.978 567.54 228.968C569.13 225.658 573.66 225.368 577.33 225.538C585.96 225.938 595.43 225.988 602.18 220.538C604.98 218.298 608.11 212.668 612.18 213.738C615.8 214.688 617.31 219.598 621.08 220.688C623.81 221.478 626.64 220.218 629.42 219.688C633.42 218.898 637.52 219.558 641.58 219.588C645.64 219.618 650.05 218.848 652.82 215.878C656.56 211.878 655.95 205.628 655.62 200.148C655.21 193.069 655.69 185.967 657.05 179.008C658.41 172.088 660.5 164.348 656.68 158.418C653.04 152.768 645.5 151.218 640.35 146.888C635.53 142.888 632.98 136.478 627.89 132.768C621.48 128.098 612.77 128.768 604.89 129.578L587.79 131.398C583.38 131.868 578.79 132.398 575.16 135.028C568.61 139.768 567.71 149.618 561.51 154.808C558.75 157.108 555.22 158.248 552.07 159.968C548.92 161.688 545.88 164.408 545.52 167.968C545.22 170.968 546.84 173.738 547.63 176.628C549.5 183.528 546.58 190.628 544.71 197.578C542.84 204.528 542.48 212.968 547.91 217.578C549.01 218.518 550.29 219.238 551.36 220.218C555.03 223.568 555.53 229.218 554.68 234.098" fill="#444053"/>
<path d="M605.15 253.448C605.702 253.448 606.15 252.329 606.15 250.948C606.15 249.567 605.702 248.448 605.15 248.448C604.598 248.448 604.15 249.567 604.15 250.948C604.15 252.329 604.598 253.448 605.15 253.448Z" fill="#444053"/>
<path d="M605.15 263.868C605.702 263.868 606.15 262.749 606.15 261.368C606.15 259.987 605.702 258.868 605.15 258.868C604.598 258.868 604.15 259.987 604.15 261.368C604.15 262.749 604.598 263.868 605.15 263.868Z" fill="#444053"/>
<path d="M582.97 481.248C584.04 480.018 584.75 476.858 585.16 472.688L573.24 457.828C573.24 457.828 578.29 486.638 582.97 481.248Z" fill="#AE6E79"/>
<path opacity="0.1" d="M596.41 726.868C596.41 726.868 576.85 757.108 515.74 753.868C458.17 750.868 430.07 722.538 431.41 712.538C432.75 702.538 427.74 678.198 440.07 671.198C447.22 667.148 456.63 669.548 463.27 672.288C465.564 673.22 468.075 673.482 470.512 673.045C472.949 672.608 475.213 671.489 477.04 669.818C483.11 664.348 494.43 658.188 512.3 663.038C514.599 663.652 517.025 663.606 519.3 662.908C526.74 660.638 544.45 656.698 557.3 665.448C559.331 666.848 561.718 667.641 564.183 667.735C566.648 667.829 569.089 667.219 571.22 665.978L571.4 665.868C577.4 662.198 605.4 696.868 605.4 696.868C605.4 696.868 606.74 723.538 596.41 726.868Z" fill="black"/>
<path d="M596.41 727.868C596.41 727.868 576.85 758.108 515.74 754.868C458.17 751.868 430.07 723.538 431.41 713.538C432.75 703.538 427.74 679.198 440.07 672.198C447.22 668.148 456.63 670.548 463.27 673.288C465.564 674.22 468.075 674.482 470.512 674.045C472.949 673.608 475.213 672.489 477.04 670.818C483.11 665.348 494.43 659.188 512.3 664.038C514.599 664.652 517.025 664.606 519.3 663.908C526.74 661.638 544.45 657.698 557.3 666.448C559.331 667.848 561.718 668.641 564.183 668.735C566.648 668.829 569.089 668.219 571.22 666.978L571.4 666.868C577.4 663.198 605.4 697.868 605.4 697.868C605.4 697.868 606.74 724.538 596.41 727.868Z" fill="#767D9F"/>
<path opacity="0.1" d="M515.74 739.708C537.743 739.708 555.58 721.871 555.58 699.868C555.58 677.865 537.743 660.028 515.74 660.028C493.737 660.028 475.9 677.865 475.9 699.868C475.9 721.871 493.737 739.708 515.74 739.708Z" fill="black"/>
<path d="M515.74 740.708C537.743 740.708 555.58 722.871 555.58 700.868C555.58 678.865 537.743 661.028 515.74 661.028C493.737 661.028 475.9 678.865 475.9 700.868C475.9 722.871 493.737 740.708 515.74 740.708Z" fill="#FFB9B9"/>
<path d="M504.32 666.428C500.14 667.558 496.02 669.718 493.98 673.268C492.75 675.408 492.32 677.978 490.54 679.758C488.02 682.288 483.77 682.338 480.36 683.758C476.95 685.178 474.7 690.178 478.04 691.758C474.56 691.938 471.98 695.148 471.55 698.338C471.12 701.528 472.33 704.708 473.5 707.748C477.32 717.588 481.43 727.858 489.85 734.858C503.57 746.278 524.25 745.748 542.68 744.538C544.186 744.588 545.679 744.243 547.01 743.538C549.01 742.218 549.26 739.688 549.59 737.468C550.98 727.988 556.12 719.378 559.48 710.328C562.84 701.278 564.22 690.648 558.56 682.638C550.23 670.758 518.34 662.628 504.32 666.428Z" fill="#B96B6B"/>
<path opacity="0.1" d="M581.97 498.748L580.74 508.198L566.41 510.198C566.41 510.198 564.86 506.878 562.67 501.778L581.74 498.198L581.97 498.748Z" fill="black"/>
<path d="M597.07 707.538L605.41 697.868L603.74 644.538C604.561 640.691 605.119 636.792 605.41 632.868C605.74 627.198 601.24 614.538 601.24 614.538C601.938 612.004 602.886 609.545 604.07 607.198C606.07 603.198 601.25 594.198 601.25 594.198C601.25 594.198 594.07 570.868 597.07 559.198C600.07 547.528 596.34 540.868 596.34 540.868C596.34 540.868 593.41 527.868 593.74 522.538C594.07 517.208 587.07 512.198 587.07 512.198L581.74 499.198L560.41 503.198V548.198C560.41 548.198 561.74 591.198 560.41 599.538C559.08 607.878 563.07 615.868 563.07 615.868C563.07 615.868 560.74 628.198 562.74 632.868C564.74 637.538 568.74 648.868 568.74 648.868C567.997 652.917 568.227 657.085 569.41 661.028C571.41 666.868 569.41 670.198 569.41 670.198L597.07 707.538Z" fill="#767D9F"/>
<g opacity="0.1">
<path opacity="0.1" d="M657.08 175.718C655.952 181.572 655.446 187.528 655.57 193.488C655.656 188.532 656.174 183.594 657.12 178.728C658 174.288 659.12 169.508 658.88 165.078C658.511 168.66 657.91 172.214 657.08 175.718V175.718Z" fill="black"/>
<path opacity="0.1" d="M551.39 216.998C550.32 215.998 549.04 215.298 547.94 214.348C545.02 211.858 543.79 208.248 543.55 204.348C543.26 209.348 544.28 214.188 547.94 217.348C549.04 218.298 550.32 219.018 551.39 219.998C553.627 222.212 554.923 225.203 555.01 228.348C555.3 224.148 554.45 219.778 551.39 216.998Z" fill="black"/>
<path opacity="0.1" d="M548.2 179.658C548.375 177.546 548.192 175.42 547.66 173.368C547.08 171.228 546.04 169.138 545.66 166.988C545.66 167.218 545.58 167.458 545.55 167.708C545.26 170.708 546.88 173.478 547.66 176.368C547.947 177.445 548.128 178.547 548.2 179.658V179.658Z" fill="black"/>
<path opacity="0.1" d="M652.85 212.588C650.08 215.588 645.67 216.328 641.61 216.298C637.55 216.268 633.44 215.608 629.45 216.408C626.67 216.968 623.84 218.218 621.11 217.408C617.34 216.318 615.83 211.408 612.22 210.458C608.11 209.378 604.98 215.008 602.22 217.248C595.47 222.648 586 222.598 577.37 222.248C573.7 222.078 569.17 222.368 567.59 225.688C567.108 226.695 567.005 227.842 567.3 228.918L555.08 230.838C555.034 231.844 554.924 232.846 554.75 233.838L567.3 231.838C567.005 230.762 567.108 229.615 567.59 228.608C569.17 225.288 573.7 224.998 577.37 225.168C586 225.568 595.47 225.618 602.22 220.168C605.02 217.928 608.15 212.298 612.22 213.378C615.83 214.318 617.34 219.238 621.11 220.328C623.84 221.108 626.67 219.858 629.45 219.328C633.45 218.528 637.55 219.188 641.61 219.218C645.67 219.248 650.08 218.478 652.85 215.508C655.62 212.538 656.02 208.108 655.85 203.788C655.73 207.138 655.04 210.238 652.85 212.588Z" fill="black"/>
</g>
<g opacity="0.1">
<path opacity="0.1" d="M560.28 260.618C559.102 259.998 557.866 259.496 556.59 259.118C554.42 258.132 552.697 256.37 551.76 254.178C552.51 257.628 554.41 260.768 557.59 262.118C558.866 262.496 560.102 262.998 561.28 263.618C562.033 264.15 562.641 264.862 563.05 265.688C562.65 263.728 561.92 261.728 560.28 260.618Z" fill="black"/>
<path opacity="0.1" d="M577.36 284.948C572.75 286.118 566.73 286.728 564.2 282.818C564.279 283.76 564.551 284.676 565 285.508C567.16 289.358 572.44 289.228 576.93 288.278L577.36 284.948Z" fill="black"/>
<path opacity="0.1" d="M596.04 287.688C596.68 291.748 594.04 295.798 590.54 297.928C587.04 300.058 582.77 300.648 578.65 300.928C577.995 301.013 577.329 300.937 576.71 300.708C576.522 301.131 576.462 301.599 576.536 302.056C576.61 302.512 576.816 302.938 577.127 303.279C577.439 303.621 577.844 303.864 578.292 303.979C578.74 304.095 579.212 304.077 579.65 303.928C583.77 303.668 588.01 303.098 591.54 300.928C595.07 298.758 597.71 294.718 597.03 290.648C596.838 289.621 596.505 288.624 596.04 287.688V287.688Z" fill="black"/>
<path opacity="0.1" d="M600.48 251.488C601.09 253.919 601.138 256.458 600.618 258.91C600.098 261.363 599.024 263.664 597.48 265.638C595.12 268.498 591.53 270.788 591.02 274.458C590.85 276.145 591.199 277.844 592.02 279.328C591.93 278.708 591.93 278.078 592.02 277.458C592.53 273.788 596.12 271.458 598.48 268.638C602.36 263.948 602.9 257.038 600.48 251.488Z" fill="black"/>
</g>
<g opacity="0.1">
<path opacity="0.1" d="M480.37 685.298C483.77 683.888 488.02 683.838 490.55 681.298C492.33 679.518 492.76 676.948 493.99 674.818C495.99 671.258 500.14 669.108 504.32 667.978C518.32 664.178 550.24 672.298 558.56 684.068C560.998 687.629 562.328 691.833 562.38 696.148C562.7 691.166 561.36 686.218 558.57 682.078C550.25 670.308 518.36 662.188 504.33 665.988C500.15 667.118 496.03 669.268 494 672.828C492.77 674.958 492.34 677.528 490.56 679.308C488.03 681.838 483.78 681.888 480.38 683.308C477.79 684.378 475.87 687.538 476.57 689.658C476.849 688.699 477.333 687.812 477.99 687.059C478.646 686.307 479.458 685.706 480.37 685.298V685.298Z" fill="black"/>
<path opacity="0.1" d="M471.57 699.828C471.99 696.628 474.57 693.428 478.06 693.248C477.693 693.095 477.366 692.862 477.101 692.567C476.836 692.271 476.641 691.919 476.53 691.538C475.202 692.031 474.035 692.878 473.154 693.987C472.273 695.095 471.711 696.424 471.53 697.828C471.435 698.642 471.435 699.464 471.53 700.278C471.57 700.128 471.57 699.978 471.57 699.828Z" fill="black"/>
</g>
<path d="M683.4 337.438H592.4V456.108H683.4V337.438Z" fill="white"/>
<path opacity="0.1" d="M683.4 337.438H592.4V456.108H683.4V337.438Z" fill="black"/>
<path d="M718.169 344.4L628.486 359.827L648.603 476.779L738.286 461.353L718.169 344.4Z" fill="white"/>
<path d="M671.292 435.929L650.221 439.553L654.948 467.03L676.018 463.405L671.292 435.929Z" fill="#536DFE"/>
<path d="M700.449 430.908L679.378 434.533L684.105 462.009L705.175 458.385L700.449 430.908Z" fill="#536DFE"/>
<path d="M721.053 390.653L647.16 403.341L651.899 430.943L725.793 418.254L721.053 390.653Z" fill="#536DFE"/>
<path d="M714.894 357.71L641 370.399L642.058 376.557L715.951 363.868L714.894 357.71Z" fill="#536DFE"/>
<path d="M717.317 369.038L643.424 381.727L644.481 387.885L718.375 375.196L717.317 369.038Z" fill="#536DFE"/>
<path d="M643.57 305.198C643.57 305.198 601.74 347.198 622.74 357.868C643.74 368.538 657.41 322.368 657.41 322.368L660.73 311.868L643.57 305.198Z" fill="#AE6E79"/>
<path opacity="0.1" d="M639.91 301.488L634.74 312.908C634.74 312.908 660.24 316.488 665.57 324.198L662.41 304.048L658.66 295.448L639.91 301.488Z" fill="black"/>
<path d="M640.91 300.488L635.74 311.908C635.74 311.908 661.24 315.488 666.57 323.198L663.41 303.048L659.66 294.448L640.91 300.488Z" fill="#4C4981"/>
<path d="M795.27 510.458L794.72 510.838L795.48 511.178L796.3 511.108L796.4 510.538L795.27 510.458Z" fill="#464A5F"/>
<path opacity="0.1" d="M795.27 510.458L794.72 510.838L795.48 511.178L796.3 511.108L796.4 510.538L795.27 510.458Z" fill="black"/>
<path d="M795.27 510.458L794.71 510.818L794.27 510.278L794.54 509.838L794.79 509.758L795.27 510.458Z" fill="#9C9CA1"/>
<path opacity="0.1" d="M795.27 510.458L794.71 510.818L794.27 510.278L794.54 509.838L794.79 509.758L795.27 510.458Z" fill="black"/>
<path d="M893.7 441.348L852.76 382.218C852.397 381.69 851.934 381.239 851.397 380.891C850.86 380.542 850.259 380.303 849.629 380.187C849 380.071 848.353 380.08 847.727 380.214C847.101 380.348 846.507 380.604 845.98 380.968L754.72 443.608C753.652 444.341 752.919 445.468 752.681 446.741C752.443 448.014 752.719 449.329 753.45 450.398L794.28 510.278L893.7 441.348Z" fill="#9C9CA1"/>
<path opacity="0.1" d="M893.7 441.348L852.76 382.218C852.397 381.69 851.934 381.239 851.397 380.891C850.86 380.542 850.259 380.303 849.629 380.187C849 380.071 848.353 380.08 847.727 380.214C847.101 380.348 846.507 380.604 845.98 380.968L754.72 443.608C753.652 444.341 752.919 445.468 752.681 446.741C752.443 448.014 752.719 449.329 753.45 450.398L794.28 510.278L893.7 441.348Z" fill="black"/>
<path d="M894.7 441.488L853.76 382.358C853.396 381.83 852.932 381.379 852.394 381.03C851.856 380.681 851.255 380.442 850.624 380.326C849.993 380.21 849.346 380.219 848.719 380.354C848.092 380.488 847.498 380.744 846.97 381.108L755.72 443.788C754.653 444.521 753.919 445.647 753.679 446.919C753.44 448.191 753.713 449.507 754.44 450.578L795.27 510.488L894.7 441.488Z" fill="#9C9CA1"/>
<path d="M928.92 453.178L894.92 442.258L795.48 511.188L830.02 522.488C830.793 522.739 831.614 522.807 832.418 522.685C833.221 522.564 833.986 522.257 834.65 521.788L929.2 455.028C929.377 454.929 929.52 454.778 929.609 454.595C929.698 454.413 929.73 454.207 929.699 454.006C929.669 453.806 929.578 453.619 929.439 453.471C929.3 453.323 929.119 453.221 928.92 453.178Z" fill="#464A5F"/>
<path opacity="0.1" d="M928.92 453.178L894.92 442.258L795.48 511.188L830.02 522.488C830.793 522.739 831.614 522.807 832.418 522.685C833.221 522.564 833.986 522.257 834.65 521.788L929.2 455.028C929.377 454.929 929.52 454.778 929.609 454.595C929.698 454.413 929.73 454.207 929.699 454.006C929.669 453.806 929.578 453.619 929.439 453.471C929.3 453.323 929.119 453.221 928.92 453.178Z" fill="black"/>
<path d="M928.71 452.488L894.71 441.558L795.27 510.488L829.81 521.768C830.582 522.024 831.403 522.095 832.207 521.975C833.011 521.855 833.776 521.548 834.44 521.078L928.99 454.318C929.16 454.216 929.296 454.066 929.381 453.886C929.465 453.706 929.495 453.505 929.464 453.309C929.434 453.113 929.347 452.93 929.212 452.784C929.078 452.638 928.903 452.535 928.71 452.488V452.488Z" fill="#464A5F"/>
<g opacity="0.1">
<path opacity="0.1" d="M878.64 438.848L876.13 435.248C875.979 435.039 875.754 434.897 875.5 434.85C875.247 434.804 874.985 434.857 874.77 434.998L871.04 437.488C870.831 437.636 870.686 437.858 870.636 438.109C870.585 438.361 870.634 438.621 870.77 438.838L873.08 442.388C873.225 442.601 873.446 442.75 873.697 442.804C873.948 442.858 874.211 442.813 874.43 442.678L878.36 440.208C878.574 440.062 878.722 439.838 878.775 439.585C878.827 439.331 878.779 439.067 878.64 438.848V438.848Z" fill="black"/>
<path opacity="0.1" d="M871.94 443.488L869.42 439.898C869.269 439.689 869.043 439.547 868.79 439.5C868.537 439.454 868.275 439.507 868.06 439.648L864.34 442.158C864.129 442.304 863.982 442.526 863.93 442.777C863.878 443.029 863.924 443.29 864.06 443.508L866.37 447.058C866.513 447.273 866.733 447.423 866.985 447.479C867.236 447.535 867.5 447.492 867.72 447.358L871.66 444.888C871.771 444.816 871.867 444.721 871.942 444.611C872.016 444.501 872.068 444.377 872.094 444.247C872.12 444.117 872.12 443.982 872.093 443.852C872.067 443.722 872.015 443.598 871.94 443.488Z" fill="black"/>
<path opacity="0.1" d="M864.9 448.358L862.38 444.768C862.229 444.559 862.004 444.417 861.75 444.37C861.497 444.324 861.235 444.377 861.02 444.518L857.29 447.028C857.078 447.176 856.931 447.4 856.881 447.654C856.831 447.907 856.88 448.171 857.02 448.388L859.33 451.938C859.475 452.151 859.695 452.3 859.947 452.354C860.198 452.408 860.461 452.363 860.68 452.228L864.61 449.758C864.722 449.686 864.819 449.593 864.894 449.483C864.97 449.373 865.022 449.25 865.049 449.119C865.076 448.989 865.077 448.854 865.051 448.724C865.026 448.593 864.974 448.469 864.9 448.358V448.358Z" fill="black"/>
<path opacity="0.1" d="M857.77 453.298L855.25 449.698C855.099 449.492 854.876 449.351 854.625 449.305C854.374 449.258 854.114 449.31 853.9 449.448L850.17 451.968C849.961 452.116 849.816 452.338 849.766 452.589C849.715 452.841 849.764 453.101 849.9 453.318L852.21 456.868C852.353 457.08 852.571 457.229 852.82 457.285C853.07 457.34 853.331 457.299 853.55 457.168L857.49 454.688C857.6 454.616 857.694 454.522 857.768 454.413C857.842 454.303 857.893 454.181 857.919 454.051C857.945 453.922 857.945 453.789 857.92 453.66C857.894 453.531 857.843 453.408 857.77 453.298Z" fill="black"/>
<path opacity="0.1" d="M850.65 458.228L848.13 454.638C847.979 454.429 847.754 454.287 847.5 454.24C847.247 454.194 846.985 454.247 846.77 454.388L843.05 456.898C842.839 457.044 842.692 457.266 842.64 457.517C842.588 457.769 842.635 458.03 842.77 458.248L845.08 461.798C845.223 462.013 845.443 462.163 845.695 462.219C845.946 462.275 846.21 462.232 846.43 462.098L850.37 459.618C850.48 459.546 850.574 459.452 850.648 459.343C850.722 459.233 850.773 459.111 850.799 458.981C850.825 458.852 850.825 458.719 850.8 458.59C850.774 458.461 850.723 458.338 850.65 458.228Z" fill="black"/>
<path opacity="0.1" d="M843.84 463.608L840.71 459.148C840.677 459.099 840.634 459.056 840.584 459.023C840.535 458.99 840.479 458.967 840.42 458.956C840.361 458.945 840.301 458.946 840.243 458.958C840.184 458.97 840.129 458.994 840.08 459.028L835.5 462.118C835.45 462.151 835.406 462.193 835.372 462.242C835.338 462.292 835.315 462.347 835.302 462.406C835.29 462.465 835.29 462.525 835.302 462.584C835.313 462.643 835.337 462.699 835.37 462.748L838.24 467.158C838.306 467.26 838.408 467.331 838.526 467.357C838.644 467.383 838.768 467.362 838.87 467.298L843.71 464.298C843.768 464.265 843.818 464.22 843.857 464.166C843.896 464.111 843.923 464.049 843.935 463.983C843.947 463.918 843.945 463.85 843.929 463.785C843.912 463.721 843.882 463.66 843.84 463.608V463.608Z" fill="black"/>
<path opacity="0.1" d="M836.72 468.538L833.57 464.078C833.536 464.028 833.492 463.986 833.442 463.952C833.391 463.919 833.334 463.897 833.275 463.886C833.215 463.874 833.154 463.875 833.095 463.888C833.036 463.9 832.98 463.924 832.93 463.958L828.35 467.048C828.252 467.117 828.185 467.221 828.162 467.339C828.14 467.457 828.164 467.578 828.23 467.678L831.1 472.088C831.131 472.141 831.172 472.186 831.221 472.222C831.27 472.257 831.325 472.283 831.384 472.296C831.444 472.309 831.505 472.31 831.564 472.298C831.624 472.286 831.68 472.263 831.73 472.228L836.56 469.228C836.622 469.199 836.676 469.157 836.719 469.104C836.762 469.051 836.793 468.989 836.808 468.922C836.823 468.856 836.823 468.787 836.808 468.72C836.793 468.654 836.763 468.591 836.72 468.538V468.538Z" fill="black"/>
<path opacity="0.1" d="M830.41 472.908L827.28 468.488C827.21 468.392 827.105 468.326 826.987 468.306C826.87 468.285 826.749 468.311 826.65 468.378L822.07 471.458C821.97 471.527 821.9 471.633 821.876 471.752C821.851 471.871 821.875 471.995 821.94 472.098L824.81 476.508C824.877 476.608 824.98 476.677 825.097 476.703C825.214 476.729 825.337 476.71 825.44 476.648L830.28 473.648C830.347 473.617 830.405 473.57 830.449 473.511C830.494 473.453 830.524 473.384 830.537 473.312C830.549 473.239 830.544 473.165 830.522 473.095C830.5 473.024 830.462 472.96 830.41 472.908V472.908Z" fill="black"/>
<path opacity="0.1" d="M823.35 477.788L820.22 473.328C820.15 473.232 820.045 473.166 819.927 473.146C819.81 473.125 819.689 473.151 819.59 473.218L815.01 476.298C814.959 476.332 814.916 476.375 814.882 476.425C814.848 476.475 814.824 476.532 814.812 476.591C814.8 476.651 814.799 476.712 814.811 476.772C814.823 476.831 814.846 476.888 814.88 476.938L817.75 481.348C817.817 481.448 817.92 481.517 818.037 481.543C818.154 481.569 818.277 481.55 818.38 481.488L823.22 478.488C823.278 478.454 823.329 478.408 823.368 478.353C823.406 478.297 823.433 478.234 823.445 478.168C823.458 478.102 823.456 478.033 823.439 477.968C823.423 477.902 823.392 477.841 823.35 477.788V477.788Z" fill="black"/>
<path opacity="0.1" d="M816.51 482.488L813.38 478.028C813.347 477.979 813.304 477.936 813.254 477.903C813.205 477.87 813.149 477.847 813.09 477.836C813.032 477.825 812.971 477.826 812.913 477.838C812.854 477.85 812.799 477.874 812.75 477.908L808.17 480.998C808.12 481.031 808.076 481.073 808.042 481.122C808.008 481.172 807.985 481.227 807.973 481.286C807.96 481.345 807.96 481.405 807.972 481.464C807.983 481.523 808.007 481.579 808.04 481.628L810.91 486.038C810.976 486.14 811.078 486.211 811.196 486.237C811.314 486.263 811.438 486.242 811.54 486.178L816.38 483.178C816.438 483.145 816.488 483.1 816.527 483.046C816.566 482.991 816.593 482.929 816.605 482.863C816.617 482.798 816.615 482.73 816.599 482.665C816.582 482.601 816.552 482.54 816.51 482.488V482.488Z" fill="black"/>
<path opacity="0.1" d="M809.67 487.268L806.57 482.798C806.5 482.702 806.395 482.636 806.277 482.616C806.16 482.595 806.039 482.621 805.94 482.688L801.36 485.768C801.309 485.802 801.266 485.845 801.232 485.895C801.198 485.945 801.174 486.002 801.162 486.061C801.15 486.121 801.149 486.182 801.161 486.242C801.173 486.301 801.196 486.358 801.23 486.408L804.1 490.818C804.167 490.918 804.27 490.987 804.387 491.013C804.504 491.039 804.627 491.02 804.73 490.958L809.57 487.958C809.626 487.923 809.673 487.875 809.709 487.82C809.745 487.764 809.769 487.702 809.778 487.636C809.788 487.571 809.783 487.504 809.764 487.44C809.746 487.377 809.713 487.318 809.67 487.268Z" fill="black"/>
<path opacity="0.1" d="M802.83 491.998L799.7 487.538C799.667 487.489 799.624 487.446 799.574 487.413C799.525 487.38 799.469 487.357 799.41 487.346C799.352 487.335 799.291 487.336 799.233 487.348C799.174 487.36 799.119 487.384 799.07 487.418L794.49 490.488C794.44 490.521 794.396 490.563 794.362 490.612C794.328 490.662 794.305 490.717 794.293 490.776C794.28 490.835 794.28 490.895 794.292 490.954C794.303 491.013 794.327 491.069 794.36 491.118L797.23 495.528C797.296 495.63 797.399 495.701 797.516 495.727C797.634 495.753 797.758 495.732 797.86 495.668L802.7 492.668C802.755 492.635 802.803 492.591 802.839 492.538C802.876 492.485 802.902 492.425 802.914 492.362C802.926 492.299 802.925 492.234 802.91 492.171C802.896 492.109 802.869 492.05 802.83 491.998V491.998Z" fill="black"/>
<path opacity="0.1" d="M874.14 432.338L871.62 428.738C871.469 428.529 871.244 428.387 870.99 428.34C870.737 428.294 870.475 428.347 870.26 428.488L866.57 431.008C866.359 431.154 866.212 431.376 866.16 431.627C866.108 431.879 866.154 432.14 866.29 432.358L868.6 435.908C868.745 436.121 868.965 436.27 869.217 436.324C869.468 436.378 869.731 436.333 869.95 436.198L873.89 433.728C874.107 433.577 874.255 433.345 874.302 433.085C874.349 432.824 874.291 432.556 874.14 432.338Z" fill="black"/>
<path opacity="0.1" d="M864.29 418.108L861.77 414.488C861.619 414.282 861.396 414.141 861.145 414.095C860.894 414.048 860.634 414.1 860.42 414.238L856.69 416.748C856.479 416.894 856.332 417.116 856.28 417.367C856.228 417.619 856.275 417.88 856.41 418.098L858.72 421.648C858.863 421.863 859.083 422.013 859.335 422.069C859.586 422.125 859.85 422.082 860.07 421.948L864.01 419.478C864.226 419.332 864.377 419.106 864.429 418.85C864.482 418.594 864.432 418.328 864.29 418.108V418.108Z" fill="black"/>
<path opacity="0.1" d="M867.43 436.978L864.91 433.388C864.759 433.182 864.536 433.041 864.285 432.995C864.034 432.948 863.774 433 863.56 433.138L859.83 435.648C859.621 435.796 859.476 436.018 859.426 436.269C859.376 436.521 859.424 436.781 859.56 436.998L861.86 440.548C862.003 440.763 862.223 440.913 862.475 440.969C862.726 441.025 862.99 440.982 863.21 440.848L867.15 438.378C867.261 438.306 867.357 438.211 867.432 438.101C867.506 437.991 867.558 437.867 867.584 437.737C867.61 437.607 867.61 437.472 867.583 437.342C867.557 437.212 867.505 437.088 867.43 436.978Z" fill="black"/>
<path opacity="0.1" d="M860.39 441.848L857.87 438.258C857.719 438.049 857.494 437.907 857.24 437.86C856.987 437.814 856.725 437.867 856.51 438.008L852.79 440.488C852.576 440.635 852.428 440.858 852.375 441.112C852.323 441.365 852.371 441.629 852.51 441.848L854.82 445.398C854.965 445.611 855.186 445.76 855.437 445.814C855.688 445.868 855.951 445.823 856.17 445.688L860.11 443.218C860.326 443.072 860.477 442.846 860.529 442.59C860.582 442.334 860.532 442.068 860.39 441.848V441.848Z" fill="black"/>
<path opacity="0.1" d="M853.26 446.788L850.75 443.188C850.599 442.979 850.374 442.837 850.12 442.79C849.867 442.744 849.605 442.797 849.39 442.938L845.66 445.488C845.451 445.636 845.306 445.858 845.256 446.109C845.205 446.361 845.254 446.621 845.39 446.838L847.7 450.388C847.845 450.601 848.066 450.75 848.317 450.804C848.568 450.858 848.831 450.813 849.05 450.678L852.98 448.208C853.094 448.136 853.192 448.04 853.269 447.929C853.345 447.817 853.398 447.691 853.424 447.558C853.45 447.425 853.449 447.289 853.421 447.156C853.393 447.024 853.338 446.899 853.26 446.788Z" fill="black"/>
<path opacity="0.1" d="M857.74 422.978L855.22 419.388C855.069 419.182 854.846 419.041 854.595 418.995C854.344 418.948 854.084 419 853.87 419.138L850.14 421.648C849.929 421.794 849.782 422.016 849.73 422.267C849.678 422.519 849.724 422.78 849.86 422.998L852.17 426.548C852.313 426.763 852.533 426.913 852.785 426.969C853.036 427.025 853.3 426.982 853.52 426.848L857.46 424.378C857.571 424.306 857.667 424.211 857.741 424.101C857.816 423.991 857.868 423.867 857.894 423.737C857.92 423.607 857.92 423.472 857.893 423.342C857.867 423.212 857.815 423.088 857.74 422.978Z" fill="black"/>
<path opacity="0.1" d="M850.7 427.858L848.18 424.258C848.029 424.049 847.804 423.907 847.55 423.86C847.297 423.814 847.035 423.867 846.82 424.008L843.1 426.488C842.889 426.634 842.742 426.856 842.69 427.107C842.638 427.359 842.685 427.62 842.82 427.838L845.13 431.388C845.275 431.601 845.496 431.75 845.747 431.804C845.998 431.858 846.261 431.813 846.48 431.678L850.42 429.208C850.631 429.062 850.778 428.84 850.83 428.589C850.882 428.338 850.835 428.076 850.7 427.858Z" fill="black"/>
<path opacity="0.1" d="M843.57 432.788L841.05 429.198C840.901 428.991 840.678 428.848 840.427 428.799C840.176 428.751 839.916 428.801 839.7 428.938L835.97 431.488C835.761 431.636 835.616 431.858 835.566 432.109C835.515 432.361 835.564 432.621 835.7 432.838L838.01 436.388C838.153 436.603 838.373 436.753 838.625 436.809C838.876 436.865 839.14 436.822 839.36 436.688L843.29 434.208C843.404 434.136 843.502 434.04 843.579 433.929C843.655 433.817 843.708 433.691 843.734 433.558C843.76 433.425 843.759 433.289 843.731 433.156C843.703 433.024 843.648 432.899 843.57 432.788Z" fill="black"/>
<path opacity="0.1" d="M846.14 451.718L843.62 448.128C843.471 447.921 843.248 447.778 842.997 447.729C842.746 447.681 842.486 447.731 842.27 447.868L838.57 450.388C838.361 450.536 838.216 450.758 838.166 451.009C838.115 451.261 838.164 451.521 838.3 451.738L840.57 455.288C840.713 455.5 840.931 455.649 841.18 455.705C841.43 455.76 841.691 455.719 841.91 455.588L845.85 453.108C845.961 453.036 846.056 452.943 846.131 452.834C846.205 452.725 846.258 452.603 846.285 452.474C846.312 452.344 846.313 452.211 846.288 452.081C846.263 451.952 846.213 451.828 846.14 451.718Z" fill="black"/>
<path opacity="0.1" d="M839.02 456.648L836.5 453.058C836.349 452.849 836.124 452.707 835.87 452.66C835.617 452.614 835.355 452.667 835.14 452.808L831.42 455.318C831.209 455.464 831.062 455.686 831.01 455.937C830.958 456.189 831.005 456.45 831.14 456.668L833.45 460.218C833.593 460.433 833.813 460.583 834.065 460.639C834.316 460.695 834.58 460.652 834.8 460.518L838.74 458.048C838.851 457.976 838.947 457.881 839.022 457.771C839.096 457.661 839.148 457.537 839.174 457.407C839.2 457.277 839.2 457.142 839.173 457.012C839.147 456.882 839.095 456.758 839.02 456.648Z" fill="black"/>
<path opacity="0.1" d="M832.21 462.028L829.08 457.568C829.047 457.519 829.004 457.476 828.954 457.443C828.905 457.41 828.849 457.387 828.79 457.376C828.732 457.365 828.671 457.366 828.613 457.378C828.554 457.39 828.499 457.414 828.45 457.448L823.87 460.538C823.82 460.571 823.776 460.613 823.742 460.662C823.708 460.712 823.685 460.767 823.673 460.826C823.66 460.885 823.66 460.945 823.672 461.004C823.683 461.063 823.707 461.119 823.74 461.168L826.61 465.578C826.642 465.629 826.683 465.674 826.732 465.709C826.781 465.744 826.837 465.768 826.895 465.781C826.954 465.794 827.015 465.795 827.074 465.785C827.133 465.774 827.19 465.751 827.24 465.718L832.08 462.718C832.138 462.685 832.188 462.64 832.227 462.586C832.266 462.531 832.293 462.469 832.305 462.403C832.317 462.338 832.315 462.27 832.299 462.205C832.282 462.141 832.252 462.08 832.21 462.028V462.028Z" fill="black"/>
<path opacity="0.1" d="M825.9 466.398L822.77 461.928C822.7 461.832 822.595 461.766 822.477 461.746C822.36 461.725 822.239 461.751 822.14 461.818L817.57 464.898C817.47 464.967 817.4 465.073 817.376 465.192C817.351 465.311 817.375 465.435 817.44 465.538L820.31 469.948C820.377 470.048 820.48 470.117 820.597 470.143C820.714 470.169 820.837 470.15 820.94 470.088L825.78 467.088C825.84 467.057 825.892 467.012 825.932 466.958C825.973 466.903 825.999 466.84 826.011 466.773C826.023 466.706 826.019 466.638 825.999 466.573C825.98 466.508 825.946 466.448 825.9 466.398V466.398Z" fill="black"/>
<path opacity="0.1" d="M818.84 471.278L815.71 466.818C815.64 466.722 815.535 466.656 815.417 466.636C815.3 466.615 815.179 466.641 815.08 466.708L810.5 469.788C810.45 469.821 810.406 469.863 810.372 469.912C810.338 469.962 810.315 470.017 810.302 470.076C810.29 470.135 810.29 470.195 810.302 470.254C810.313 470.313 810.337 470.369 810.37 470.418L813.24 474.838C813.307 474.938 813.41 475.007 813.527 475.033C813.644 475.059 813.767 475.04 813.87 474.978L818.71 471.978C818.768 471.944 818.819 471.898 818.858 471.843C818.896 471.787 818.923 471.724 818.935 471.658C818.948 471.592 818.946 471.523 818.929 471.458C818.913 471.392 818.882 471.331 818.84 471.278V471.278Z" fill="black"/>
<path opacity="0.1" d="M812 476.018L808.87 471.558C808.837 471.509 808.794 471.466 808.744 471.433C808.695 471.4 808.639 471.377 808.58 471.366C808.522 471.355 808.461 471.356 808.403 471.368C808.344 471.38 808.289 471.404 808.24 471.438L803.66 474.488C803.61 474.521 803.566 474.563 803.532 474.612C803.498 474.662 803.475 474.717 803.463 474.776C803.45 474.835 803.45 474.895 803.462 474.954C803.473 475.013 803.497 475.069 803.53 475.118L806.4 479.528C806.466 479.63 806.568 479.701 806.686 479.727C806.804 479.753 806.928 479.732 807.03 479.668L811.87 476.668C811.922 476.635 811.967 476.591 812.002 476.54C812.037 476.489 812.061 476.432 812.073 476.371C812.085 476.31 812.085 476.248 812.073 476.187C812.06 476.126 812.035 476.069 812 476.018V476.018Z" fill="black"/>
<path opacity="0.1" d="M855.7 435.078L853.18 431.488C853.029 431.282 852.806 431.141 852.555 431.095C852.304 431.048 852.044 431.1 851.83 431.238L848.1 433.758C847.891 433.906 847.746 434.128 847.696 434.379C847.645 434.631 847.694 434.891 847.83 435.108L850.14 438.658C850.284 438.868 850.503 439.015 850.753 439.069C851.002 439.123 851.262 439.08 851.48 438.948L855.42 436.478C855.531 436.406 855.627 436.311 855.702 436.201C855.776 436.091 855.828 435.967 855.854 435.837C855.88 435.707 855.88 435.572 855.853 435.442C855.827 435.312 855.775 435.188 855.7 435.078Z" fill="black"/>
<path opacity="0.1" d="M848.57 440.018L846.05 436.418C845.899 436.209 845.674 436.067 845.42 436.02C845.167 435.974 844.905 436.027 844.69 436.168L840.97 438.688C840.759 438.834 840.612 439.056 840.56 439.307C840.508 439.559 840.554 439.82 840.69 440.038L843 443.588C843.143 443.803 843.363 443.953 843.615 444.009C843.866 444.065 844.13 444.022 844.35 443.888L848.29 441.408C848.4 441.336 848.494 441.242 848.568 441.133C848.642 441.023 848.693 440.901 848.719 440.771C848.745 440.642 848.745 440.509 848.72 440.38C848.694 440.251 848.643 440.128 848.57 440.018Z" fill="black"/>
<path opacity="0.1" d="M841.46 444.948L838.94 441.358C838.789 441.149 838.564 441.007 838.31 440.96C838.057 440.914 837.795 440.967 837.58 441.108L833.85 443.618C833.641 443.766 833.496 443.988 833.446 444.239C833.395 444.491 833.444 444.751 833.58 444.968L835.89 448.518C836.033 448.733 836.253 448.883 836.505 448.939C836.756 448.995 837.02 448.952 837.24 448.818L841.17 446.338C841.281 446.266 841.376 446.173 841.451 446.064C841.525 445.955 841.578 445.833 841.605 445.704C841.632 445.574 841.633 445.441 841.608 445.311C841.583 445.182 841.533 445.058 841.46 444.948V444.948Z" fill="black"/>
<path opacity="0.1" d="M834.33 449.878L831.81 446.288C831.659 446.082 831.436 445.941 831.185 445.895C830.934 445.848 830.674 445.9 830.46 446.038L826.73 448.548C826.521 448.696 826.376 448.918 826.326 449.169C826.275 449.421 826.324 449.681 826.46 449.898L828.77 453.488C828.913 453.7 829.131 453.849 829.38 453.905C829.63 453.96 829.891 453.919 830.11 453.788L834.05 451.318C834.167 451.246 834.268 451.15 834.346 451.036C834.424 450.923 834.478 450.795 834.504 450.659C834.531 450.524 834.529 450.385 834.499 450.251C834.469 450.116 834.411 449.989 834.33 449.878Z" fill="black"/>
<path opacity="0.1" d="M827.57 455.258L824.44 450.798C824.407 450.749 824.364 450.706 824.314 450.673C824.265 450.64 824.209 450.617 824.15 450.606C824.092 450.595 824.031 450.596 823.973 450.608C823.914 450.62 823.859 450.644 823.81 450.678L819.23 453.768C819.13 453.835 819.061 453.939 819.037 454.057C819.012 454.174 819.035 454.297 819.1 454.398L821.97 458.818C822.002 458.869 822.045 458.912 822.094 458.946C822.143 458.98 822.199 459.004 822.258 459.016C822.316 459.028 822.377 459.028 822.436 459.017C822.494 459.005 822.55 458.982 822.6 458.948L827.44 455.948C827.498 455.915 827.548 455.87 827.587 455.816C827.626 455.761 827.653 455.699 827.665 455.633C827.677 455.568 827.675 455.5 827.659 455.435C827.643 455.371 827.612 455.31 827.57 455.258Z" fill="black"/>
<path opacity="0.1" d="M821.22 459.628L818.09 455.158C818.018 455.061 817.911 454.995 817.792 454.975C817.673 454.954 817.55 454.981 817.45 455.048L812.88 458.128C812.78 458.197 812.71 458.303 812.686 458.422C812.661 458.541 812.684 458.665 812.75 458.768L815.62 463.178C815.686 463.28 815.788 463.351 815.906 463.377C816.024 463.403 816.148 463.382 816.25 463.318L821.09 460.318C821.148 460.285 821.198 460.24 821.237 460.186C821.276 460.131 821.303 460.069 821.315 460.003C821.327 459.938 821.325 459.87 821.309 459.805C821.292 459.741 821.262 459.68 821.22 459.628Z" fill="black"/>
<path opacity="0.1" d="M814.16 464.488L811.03 460.018C810.958 459.921 810.851 459.855 810.732 459.835C810.613 459.814 810.49 459.841 810.39 459.908L805.81 462.988C805.712 463.059 805.644 463.164 805.619 463.283C805.595 463.401 805.617 463.525 805.68 463.628L808.56 468.038C808.626 468.14 808.728 468.211 808.846 468.237C808.964 468.263 809.088 468.242 809.19 468.178L814.02 465.178C814.08 465.147 814.133 465.103 814.174 465.05C814.215 464.996 814.243 464.933 814.256 464.867C814.27 464.801 814.268 464.732 814.251 464.667C814.235 464.601 814.204 464.54 814.16 464.488V464.488Z" fill="black"/>
<path opacity="0.1" d="M807.32 469.248L804.19 464.788C804.156 464.738 804.112 464.696 804.062 464.662C804.011 464.629 803.954 464.607 803.895 464.595C803.835 464.584 803.774 464.585 803.715 464.598C803.656 464.61 803.6 464.634 803.55 464.668L798.97 467.758C798.872 467.827 798.805 467.931 798.782 468.049C798.76 468.167 798.784 468.288 798.85 468.388L801.72 472.798C801.751 472.851 801.792 472.896 801.841 472.932C801.89 472.967 801.945 472.993 802.004 473.006C802.064 473.019 802.125 473.02 802.184 473.008C802.244 472.996 802.3 472.973 802.35 472.938L807.18 469.938C807.24 469.907 807.293 469.863 807.334 469.81C807.375 469.756 807.403 469.693 807.416 469.627C807.43 469.561 807.428 469.492 807.411 469.427C807.395 469.361 807.364 469.3 807.32 469.248V469.248Z" fill="black"/>
<path opacity="0.1" d="M805.16 480.748L802.03 476.288C801.96 476.192 801.855 476.126 801.737 476.106C801.62 476.085 801.499 476.111 801.4 476.178L796.82 479.258C796.77 479.291 796.726 479.333 796.692 479.382C796.658 479.432 796.635 479.487 796.623 479.546C796.61 479.605 796.61 479.665 796.622 479.724C796.633 479.783 796.657 479.839 796.69 479.888L799.56 484.308C799.627 484.408 799.73 484.477 799.847 484.503C799.964 484.529 800.087 484.51 800.19 484.448L805.03 481.448C805.088 481.414 805.139 481.368 805.178 481.313C805.217 481.257 805.243 481.194 805.255 481.128C805.268 481.062 805.266 480.993 805.249 480.928C805.233 480.862 805.202 480.801 805.16 480.748V480.748Z" fill="black"/>
<path opacity="0.1" d="M798.32 485.488L795.19 481.028C795.157 480.979 795.114 480.936 795.064 480.903C795.015 480.87 794.959 480.847 794.9 480.836C794.842 480.825 794.781 480.826 794.723 480.838C794.664 480.85 794.609 480.874 794.56 480.908L789.98 483.998C789.93 484.031 789.886 484.073 789.852 484.122C789.818 484.172 789.795 484.227 789.783 484.286C789.77 484.345 789.77 484.405 789.782 484.464C789.793 484.523 789.817 484.579 789.85 484.628L792.72 489.038C792.786 489.14 792.888 489.211 793.006 489.237C793.124 489.263 793.248 489.242 793.35 489.178L798.19 486.178C798.248 486.145 798.298 486.1 798.337 486.046C798.376 485.991 798.403 485.929 798.415 485.863C798.427 485.798 798.425 485.73 798.409 485.665C798.392 485.601 798.362 485.54 798.32 485.488Z" fill="black"/>
<path opacity="0.1" d="M809.06 457.148L806.06 452.948C805.966 452.818 805.824 452.729 805.665 452.701C805.507 452.673 805.343 452.708 805.21 452.798L800.89 455.708C800.823 455.753 800.765 455.81 800.72 455.877C800.675 455.944 800.644 456.019 800.628 456.098C800.612 456.177 800.612 456.258 800.628 456.337C800.644 456.416 800.675 456.491 800.72 456.558L803.42 460.708C803.462 460.777 803.517 460.836 803.582 460.883C803.648 460.93 803.721 460.963 803.8 460.981C803.878 460.999 803.959 461 804.038 460.986C804.117 460.972 804.193 460.942 804.26 460.898L808.83 458.028C808.905 457.988 808.971 457.932 809.024 457.865C809.077 457.798 809.116 457.721 809.137 457.638C809.159 457.556 809.163 457.47 809.15 457.385C809.136 457.301 809.106 457.22 809.06 457.148V457.148Z" fill="black"/>
<path opacity="0.1" d="M802.22 461.888L799.27 457.688C799.225 457.622 799.167 457.565 799.1 457.521C799.033 457.477 798.957 457.446 798.878 457.432C798.799 457.417 798.718 457.418 798.639 457.434C798.561 457.451 798.486 457.483 798.42 457.528L794.1 460.488C794.033 460.532 793.975 460.588 793.931 460.654C793.886 460.72 793.854 460.794 793.839 460.872C793.823 460.951 793.823 461.031 793.838 461.11C793.854 461.188 793.885 461.262 793.93 461.328L796.63 465.488C796.718 465.623 796.855 465.717 797.012 465.753C797.168 465.788 797.333 465.762 797.47 465.678L802.04 462.808C802.117 462.764 802.184 462.704 802.236 462.631C802.287 462.559 802.323 462.477 802.34 462.389C802.357 462.302 802.355 462.212 802.335 462.126C802.314 462.039 802.275 461.958 802.22 461.888V461.888Z" fill="black"/>
<path opacity="0.1" d="M795.38 466.628L792.43 462.418C792.336 462.288 792.194 462.199 792.035 462.171C791.877 462.143 791.713 462.178 791.58 462.268L787.26 465.178C787.193 465.223 787.135 465.28 787.09 465.347C787.045 465.414 787.014 465.489 786.998 465.568C786.982 465.647 786.982 465.728 786.998 465.807C787.014 465.886 787.045 465.961 787.09 466.028L789.79 470.178C789.832 470.247 789.887 470.306 789.952 470.353C790.018 470.4 790.091 470.433 790.17 470.451C790.248 470.469 790.329 470.47 790.408 470.456C790.487 470.442 790.563 470.412 790.63 470.368L795.2 467.498C795.271 467.455 795.332 467.397 795.38 467.329C795.428 467.261 795.461 467.184 795.478 467.102C795.495 467.021 795.495 466.937 795.478 466.855C795.461 466.774 795.428 466.696 795.38 466.628V466.628Z" fill="black"/>
<path opacity="0.1" d="M788.63 471.488L785.5 467.018C785.43 466.922 785.325 466.856 785.207 466.836C785.09 466.815 784.969 466.841 784.87 466.908L780.29 469.988C780.19 470.057 780.12 470.163 780.096 470.282C780.071 470.401 780.095 470.525 780.16 470.628L783.03 475.038C783.097 475.138 783.2 475.207 783.317 475.233C783.434 475.259 783.557 475.24 783.66 475.178L788.5 472.178C788.561 472.148 788.614 472.104 788.655 472.05C788.696 471.995 788.724 471.932 788.737 471.866C788.749 471.799 788.746 471.73 788.728 471.664C788.709 471.599 788.676 471.539 788.63 471.488V471.488Z" fill="black"/>
<path opacity="0.1" d="M869.57 425.338L866.86 421.488C866.708 421.281 866.481 421.14 866.228 421.096C865.975 421.051 865.714 421.106 865.5 421.248L854.92 428.658C854.715 428.807 854.574 429.028 854.526 429.277C854.478 429.526 854.526 429.783 854.66 429.998L857.21 433.938C857.283 434.047 857.378 434.141 857.487 434.214C857.597 434.286 857.72 434.337 857.849 434.362C857.978 434.387 858.111 434.386 858.24 434.36C858.369 434.333 858.491 434.282 858.6 434.208L869.34 426.698C869.546 426.544 869.684 426.317 869.727 426.064C869.77 425.811 869.714 425.551 869.57 425.338V425.338Z" fill="black"/>
<path opacity="0.1" d="M800.46 473.838L797.14 469.148C797.106 469.098 797.062 469.055 797.011 469.022C796.96 468.989 796.903 468.967 796.843 468.957C796.784 468.947 796.722 468.948 796.663 468.962C796.604 468.976 796.549 469.002 796.5 469.038L785.08 477.038C784.983 477.105 784.915 477.208 784.893 477.324C784.871 477.44 784.895 477.56 784.96 477.658L788.08 482.488C788.113 482.54 788.157 482.585 788.208 482.62C788.259 482.655 788.317 482.679 788.377 482.691C788.438 482.704 788.501 482.703 788.561 482.691C788.622 482.678 788.679 482.654 788.73 482.618L800.34 474.488C800.442 474.417 800.511 474.31 800.534 474.188C800.556 474.066 800.53 473.941 800.46 473.838V473.838Z" fill="black"/>
<path opacity="0.1" d="M836.79 437.968L833.73 433.488C833.661 433.39 833.557 433.323 833.439 433.3C833.322 433.278 833.2 433.302 833.1 433.368L807.74 450.488C807.64 450.555 807.571 450.659 807.547 450.777C807.522 450.894 807.545 451.017 807.61 451.118L810.74 455.918C810.773 455.97 810.817 456.015 810.868 456.05C810.919 456.085 810.977 456.109 811.037 456.121C811.098 456.134 811.161 456.133 811.221 456.121C811.282 456.108 811.339 456.084 811.39 456.048L836.67 438.608C836.72 438.574 836.763 438.531 836.796 438.48C836.829 438.429 836.852 438.373 836.863 438.313C836.874 438.254 836.873 438.193 836.861 438.133C836.848 438.074 836.824 438.018 836.79 437.968V437.968Z" fill="black"/>
</g>
<path d="M879.31 438.968L876.79 435.368C876.639 435.159 876.413 435.017 876.16 434.97C875.907 434.924 875.645 434.977 875.43 435.118L871.71 437.638C871.499 437.784 871.352 438.006 871.3 438.257C871.248 438.509 871.294 438.77 871.43 438.988L873.74 442.538C873.883 442.752 874.103 442.903 874.355 442.959C874.606 443.015 874.87 442.972 875.09 442.838L879.03 440.358C879.14 440.286 879.234 440.192 879.308 440.083C879.382 439.973 879.433 439.851 879.459 439.721C879.485 439.592 879.485 439.459 879.46 439.33C879.434 439.201 879.383 439.078 879.31 438.968Z" fill="#464A5F"/>
<path d="M872.57 443.608L870.05 440.018C869.899 439.812 869.676 439.671 869.425 439.625C869.174 439.578 868.914 439.63 868.7 439.768L864.97 442.278C864.759 442.424 864.612 442.646 864.56 442.897C864.508 443.149 864.554 443.41 864.69 443.628L867 447.178C867.143 447.393 867.363 447.543 867.615 447.599C867.866 447.655 868.13 447.612 868.35 447.478L872.29 445.008C872.401 444.936 872.497 444.841 872.572 444.731C872.646 444.621 872.698 444.497 872.724 444.367C872.75 444.237 872.75 444.102 872.723 443.972C872.697 443.842 872.645 443.718 872.57 443.608Z" fill="#464A5F"/>
<path d="M865.57 448.488L863.05 444.898C862.899 444.689 862.674 444.547 862.42 444.5C862.167 444.454 861.905 444.507 861.69 444.648L857.97 447.168C857.759 447.314 857.612 447.536 857.56 447.787C857.508 448.039 857.554 448.3 857.69 448.518L860 452.068C860.145 452.281 860.366 452.43 860.617 452.484C860.868 452.538 861.131 452.493 861.35 452.358L865.29 449.888C865.401 449.816 865.497 449.721 865.572 449.611C865.646 449.501 865.698 449.377 865.724 449.247C865.75 449.117 865.75 448.982 865.723 448.852C865.697 448.722 865.645 448.598 865.57 448.488Z" fill="#464A5F"/>
<path d="M858.43 453.418L855.91 449.818C855.759 449.612 855.536 449.471 855.285 449.425C855.034 449.378 854.774 449.43 854.56 449.568L850.83 452.088C850.72 452.162 850.626 452.258 850.554 452.369C850.481 452.479 850.431 452.604 850.407 452.734C850.383 452.864 850.385 452.998 850.413 453.127C850.441 453.257 850.494 453.38 850.57 453.488L852.88 457.038C853.023 457.252 853.243 457.403 853.495 457.459C853.746 457.515 854.01 457.472 854.23 457.338L858.16 454.858C858.276 454.785 858.376 454.688 858.453 454.574C858.531 454.461 858.583 454.332 858.609 454.197C858.634 454.062 858.631 453.923 858.601 453.789C858.57 453.655 858.512 453.529 858.43 453.418Z" fill="#464A5F"/>
<path d="M851.31 458.348L848.79 454.758C848.639 454.552 848.416 454.411 848.165 454.365C847.914 454.318 847.654 454.37 847.44 454.508L843.71 457.018C843.501 457.166 843.356 457.388 843.306 457.639C843.256 457.891 843.304 458.151 843.44 458.368L845.74 461.918C845.883 462.132 846.103 462.283 846.355 462.339C846.606 462.395 846.87 462.352 847.09 462.218L851.03 459.738C851.14 459.666 851.234 459.572 851.308 459.463C851.382 459.353 851.433 459.231 851.459 459.101C851.485 458.972 851.485 458.839 851.46 458.71C851.434 458.581 851.383 458.458 851.31 458.348Z" fill="#464A5F"/>
<path d="M844.5 463.728L841.37 459.268C841.337 459.219 841.294 459.176 841.244 459.143C841.195 459.11 841.139 459.087 841.08 459.076C841.022 459.065 840.961 459.066 840.903 459.078C840.844 459.09 840.789 459.114 840.74 459.148L836.16 462.238C836.11 462.271 836.066 462.313 836.032 462.362C835.998 462.412 835.975 462.467 835.963 462.526C835.95 462.585 835.95 462.645 835.962 462.704C835.973 462.763 835.997 462.819 836.03 462.868L838.9 467.278C838.966 467.38 839.068 467.451 839.186 467.477C839.304 467.503 839.428 467.482 839.53 467.418L844.37 464.418C844.428 464.385 844.478 464.34 844.517 464.286C844.556 464.231 844.583 464.169 844.595 464.103C844.607 464.038 844.605 463.97 844.589 463.905C844.572 463.841 844.542 463.78 844.5 463.728V463.728Z" fill="#464A5F"/>
<path d="M837.38 468.658L834.25 464.198C834.216 464.148 834.172 464.106 834.122 464.072C834.071 464.039 834.014 464.017 833.955 464.006C833.895 463.994 833.834 463.995 833.775 464.008C833.716 464.02 833.66 464.044 833.61 464.078L829.04 467.168C828.99 467.201 828.946 467.243 828.912 467.292C828.878 467.342 828.855 467.397 828.843 467.456C828.83 467.515 828.83 467.575 828.842 467.634C828.853 467.693 828.877 467.749 828.91 467.798L831.78 472.218C831.812 472.269 831.855 472.312 831.904 472.346C831.953 472.38 832.009 472.404 832.068 472.416C832.126 472.428 832.187 472.428 832.246 472.417C832.304 472.405 832.36 472.382 832.41 472.348L837.25 469.348C837.307 469.314 837.356 469.268 837.394 469.214C837.432 469.159 837.458 469.098 837.47 469.032C837.482 468.967 837.48 468.9 837.465 468.836C837.45 468.771 837.421 468.711 837.38 468.658V468.658Z" fill="#464A5F"/>
<path d="M831.07 473.028L827.94 468.558C827.87 468.462 827.765 468.396 827.647 468.376C827.53 468.355 827.409 468.381 827.31 468.448L822.73 471.488C822.63 471.557 822.56 471.663 822.536 471.782C822.511 471.901 822.535 472.026 822.6 472.128L825.47 476.538C825.537 476.638 825.64 476.707 825.757 476.733C825.874 476.759 825.997 476.74 826.1 476.678L830.94 473.678C830.992 473.645 831.037 473.601 831.072 473.55C831.107 473.499 831.131 473.442 831.143 473.381C831.155 473.32 831.155 473.258 831.143 473.197C831.13 473.136 831.105 473.079 831.07 473.028V473.028Z" fill="#464A5F"/>
<path d="M824.01 477.918L820.88 473.488C820.81 473.392 820.705 473.326 820.587 473.306C820.47 473.285 820.349 473.311 820.25 473.378L815.67 476.458C815.619 476.492 815.576 476.535 815.542 476.585C815.508 476.635 815.484 476.692 815.472 476.751C815.46 476.811 815.459 476.872 815.471 476.932C815.483 476.991 815.506 477.048 815.54 477.098L818.41 481.508C818.477 481.608 818.58 481.677 818.697 481.703C818.814 481.729 818.937 481.71 819.04 481.648L823.88 478.648C823.945 478.616 824.001 478.57 824.045 478.512C824.088 478.454 824.117 478.387 824.13 478.316C824.142 478.245 824.138 478.172 824.117 478.103C824.097 478.034 824.06 477.97 824.01 477.918V477.918Z" fill="#464A5F"/>
<path d="M817.17 482.648L814.04 478.188C814.007 478.139 813.964 478.096 813.914 478.063C813.865 478.03 813.809 478.007 813.75 477.996C813.692 477.985 813.631 477.986 813.573 477.998C813.514 478.01 813.459 478.034 813.41 478.068L808.83 481.158C808.78 481.191 808.736 481.233 808.702 481.282C808.668 481.332 808.645 481.387 808.633 481.446C808.62 481.505 808.62 481.565 808.632 481.624C808.643 481.683 808.667 481.739 808.7 481.788L811.57 486.198C811.602 486.249 811.643 486.294 811.692 486.329C811.741 486.364 811.797 486.388 811.855 486.401C811.914 486.414 811.975 486.416 812.034 486.405C812.093 486.394 812.15 486.371 812.2 486.338L817.04 483.338C817.098 483.305 817.148 483.26 817.187 483.206C817.226 483.151 817.253 483.089 817.265 483.023C817.277 482.958 817.275 482.89 817.259 482.825C817.242 482.761 817.212 482.7 817.17 482.648V482.648Z" fill="#464A5F"/>
<path d="M810.33 487.388L807.2 482.918C807.13 482.822 807.025 482.756 806.907 482.736C806.79 482.715 806.669 482.741 806.57 482.808L801.99 485.888C801.89 485.957 801.82 486.063 801.796 486.182C801.771 486.301 801.794 486.425 801.86 486.528L804.73 490.938C804.797 491.038 804.9 491.107 805.017 491.133C805.134 491.159 805.257 491.14 805.36 491.078L810.2 488.078C810.258 488.045 810.308 488 810.347 487.946C810.386 487.891 810.413 487.829 810.425 487.763C810.437 487.698 810.435 487.63 810.419 487.565C810.402 487.501 810.372 487.44 810.33 487.388V487.388Z" fill="#464A5F"/>
<path d="M803.49 492.118L800.36 487.658C800.327 487.609 800.284 487.566 800.234 487.533C800.185 487.5 800.129 487.477 800.07 487.466C800.012 487.455 799.951 487.456 799.893 487.468C799.834 487.48 799.779 487.504 799.73 487.538L795.15 490.628C795.1 490.661 795.056 490.703 795.022 490.752C794.988 490.802 794.965 490.857 794.953 490.916C794.94 490.975 794.94 491.035 794.952 491.094C794.963 491.153 794.987 491.209 795.02 491.258L797.89 495.668C797.922 495.719 797.963 495.764 798.012 495.799C798.061 495.834 798.117 495.858 798.175 495.871C798.234 495.884 798.295 495.885 798.354 495.875C798.413 495.864 798.47 495.841 798.52 495.808L803.36 492.808C803.418 492.775 803.468 492.73 803.507 492.676C803.546 492.621 803.573 492.559 803.585 492.493C803.597 492.428 803.595 492.36 803.579 492.295C803.562 492.231 803.532 492.17 803.49 492.118V492.118Z" fill="#464A5F"/>
<path d="M874.8 432.488L872.28 428.888C872.129 428.682 871.906 428.541 871.655 428.495C871.404 428.448 871.144 428.5 870.93 428.638L867.2 431.158C866.991 431.306 866.846 431.528 866.796 431.779C866.745 432.031 866.794 432.291 866.93 432.508L869.23 436.058C869.373 436.273 869.593 436.423 869.845 436.479C870.096 436.535 870.36 436.492 870.58 436.358L874.52 433.878C874.63 433.806 874.724 433.712 874.798 433.603C874.872 433.493 874.923 433.371 874.949 433.241C874.975 433.112 874.975 432.979 874.95 432.85C874.924 432.721 874.873 432.598 874.8 432.488Z" fill="#464A5F"/>
<path d="M864.95 418.228L862.43 414.638C862.279 414.432 862.056 414.291 861.805 414.245C861.554 414.198 861.294 414.25 861.08 414.388L857.35 416.898C857.141 417.046 856.996 417.268 856.946 417.519C856.895 417.771 856.944 418.031 857.08 418.248L859.39 421.798C859.533 422.01 859.751 422.159 860 422.215C860.25 422.27 860.511 422.229 860.73 422.098L864.67 419.628C864.781 419.556 864.877 419.461 864.952 419.351C865.026 419.241 865.078 419.117 865.104 418.987C865.13 418.857 865.13 418.722 865.103 418.592C865.077 418.462 865.025 418.338 864.95 418.228Z" fill="#464A5F"/>
<path d="M868.09 437.098L865.57 433.488C865.419 433.282 865.196 433.141 864.945 433.095C864.694 433.048 864.434 433.1 864.22 433.238L860.49 435.748C860.281 435.896 860.136 436.118 860.086 436.369C860.035 436.621 860.084 436.881 860.22 437.098L862.53 440.648C862.673 440.86 862.891 441.009 863.14 441.065C863.39 441.12 863.651 441.079 863.87 440.948L867.81 438.478C868.029 438.332 868.182 438.104 868.234 437.846C868.287 437.587 868.235 437.319 868.09 437.098Z" fill="#464A5F"/>
<path d="M861.05 441.968L858.57 438.378C858.419 438.172 858.196 438.031 857.945 437.985C857.694 437.938 857.434 437.99 857.22 438.128L853.49 440.638C853.278 440.786 853.131 441.01 853.081 441.264C853.031 441.517 853.081 441.781 853.22 441.998L855.52 445.548C855.665 445.761 855.885 445.91 856.137 445.964C856.388 446.018 856.651 445.973 856.87 445.838L860.81 443.368C860.918 443.292 861.01 443.196 861.081 443.084C861.152 442.973 861.199 442.848 861.222 442.718C861.244 442.588 861.24 442.455 861.211 442.326C861.181 442.197 861.127 442.076 861.05 441.968Z" fill="#464A5F"/>
<path d="M853.93 446.908L851.41 443.308C851.259 443.099 851.033 442.957 850.78 442.91C850.527 442.864 850.265 442.917 850.05 443.058L846.33 445.578C846.119 445.724 845.972 445.946 845.92 446.197C845.868 446.449 845.914 446.71 846.05 446.928L848.36 450.478C848.503 450.692 848.723 450.843 848.975 450.899C849.226 450.955 849.49 450.912 849.71 450.778L853.65 448.298C853.76 448.226 853.854 448.132 853.928 448.023C854.002 447.913 854.053 447.791 854.079 447.661C854.105 447.532 854.105 447.399 854.08 447.27C854.054 447.141 854.003 447.018 853.93 446.908Z" fill="#464A5F"/>
<path d="M858.4 423.098L855.88 419.488C855.729 419.282 855.506 419.141 855.255 419.095C855.004 419.048 854.744 419.1 854.53 419.238L850.8 421.748C850.591 421.896 850.446 422.118 850.396 422.369C850.345 422.621 850.394 422.881 850.53 423.098L852.84 426.648C852.983 426.86 853.201 427.009 853.45 427.065C853.7 427.12 853.961 427.079 854.18 426.948L858.12 424.478C858.339 424.332 858.492 424.104 858.544 423.846C858.597 423.587 858.545 423.319 858.4 423.098V423.098Z" fill="#464A5F"/>
<path d="M851.36 427.978L848.84 424.378C848.689 424.172 848.466 424.031 848.215 423.985C847.964 423.938 847.704 423.99 847.49 424.128L843.76 426.648C843.549 426.794 843.402 427.016 843.35 427.267C843.298 427.519 843.344 427.78 843.48 427.998L845.79 431.548C845.933 431.762 846.153 431.913 846.405 431.969C846.656 432.025 846.92 431.982 847.14 431.848L851.08 429.368C851.19 429.296 851.284 429.202 851.358 429.093C851.432 428.983 851.483 428.861 851.509 428.731C851.535 428.602 851.535 428.469 851.51 428.34C851.484 428.211 851.433 428.088 851.36 427.978Z" fill="#464A5F"/>
<path d="M844.24 432.908L841.72 429.318C841.569 429.109 841.344 428.967 841.09 428.92C840.837 428.874 840.575 428.927 840.36 429.068L836.64 431.578C836.429 431.724 836.282 431.946 836.23 432.197C836.178 432.449 836.224 432.71 836.36 432.928L838.67 436.488C838.813 436.703 839.033 436.853 839.285 436.909C839.536 436.965 839.8 436.922 840.02 436.788L843.95 434.308C844.062 434.236 844.159 434.143 844.234 434.033C844.31 433.923 844.362 433.8 844.389 433.669C844.416 433.539 844.417 433.404 844.392 433.274C844.366 433.143 844.314 433.019 844.24 432.908V432.908Z" fill="#464A5F"/>
<path d="M846.8 451.838L844.28 448.248C844.129 448.042 843.906 447.901 843.655 447.855C843.404 447.808 843.144 447.86 842.93 447.998L839.2 450.488C838.991 450.636 838.846 450.858 838.796 451.109C838.745 451.361 838.794 451.621 838.93 451.838L841.24 455.388C841.383 455.6 841.601 455.749 841.85 455.805C842.1 455.86 842.361 455.819 842.58 455.688L846.52 453.208C846.736 453.062 846.887 452.836 846.939 452.58C846.992 452.324 846.942 452.058 846.8 451.838V451.838Z" fill="#464A5F"/>
<path d="M839.68 456.768L837.16 453.178C837.009 452.972 836.786 452.831 836.535 452.785C836.284 452.738 836.024 452.79 835.81 452.928L832.08 455.488C831.869 455.634 831.722 455.856 831.67 456.107C831.618 456.359 831.664 456.62 831.8 456.838L834.11 460.388C834.253 460.602 834.473 460.753 834.725 460.809C834.976 460.865 835.24 460.822 835.46 460.688L839.4 458.218C839.518 458.146 839.621 458.049 839.7 457.935C839.779 457.821 839.833 457.691 839.86 457.555C839.886 457.419 839.884 457.278 839.853 457.143C839.822 457.007 839.763 456.88 839.68 456.768Z" fill="#464A5F"/>
<path d="M832.87 462.148L829.74 457.688C829.707 457.639 829.664 457.596 829.614 457.563C829.565 457.53 829.509 457.507 829.45 457.496C829.392 457.485 829.331 457.486 829.273 457.498C829.214 457.51 829.159 457.534 829.11 457.568L824.57 460.658C824.52 460.691 824.476 460.733 824.442 460.782C824.408 460.832 824.385 460.887 824.373 460.946C824.36 461.005 824.36 461.065 824.372 461.124C824.383 461.183 824.407 461.239 824.44 461.288L827.31 465.698C827.342 465.749 827.383 465.794 827.432 465.829C827.481 465.864 827.537 465.888 827.595 465.901C827.654 465.914 827.715 465.916 827.774 465.905C827.833 465.894 827.89 465.871 827.94 465.838L832.78 462.838C832.834 462.801 832.879 462.753 832.913 462.697C832.947 462.641 832.969 462.578 832.978 462.513C832.986 462.448 832.981 462.382 832.962 462.319C832.944 462.256 832.912 462.198 832.87 462.148V462.148Z" fill="#464A5F"/>
<path d="M826.57 466.488L823.44 462.018C823.368 461.921 823.261 461.855 823.142 461.835C823.023 461.814 822.9 461.841 822.8 461.908L818.22 464.988C818.122 465.059 818.054 465.164 818.029 465.283C818.005 465.401 818.027 465.525 818.09 465.628L820.97 470.038C821.036 470.14 821.139 470.211 821.256 470.237C821.374 470.263 821.498 470.242 821.6 470.178L826.43 467.178C826.49 467.147 826.543 467.103 826.584 467.05C826.625 466.996 826.653 466.933 826.666 466.867C826.68 466.801 826.678 466.732 826.661 466.667C826.645 466.601 826.614 466.54 826.57 466.488V466.488Z" fill="#464A5F"/>
<path d="M819.5 471.408L816.37 466.938C816.3 466.842 816.195 466.776 816.077 466.756C815.96 466.735 815.839 466.761 815.74 466.828L811.16 469.908C811.06 469.977 810.99 470.083 810.966 470.202C810.941 470.321 810.965 470.445 811.03 470.548L813.9 474.958C813.967 475.058 814.07 475.127 814.187 475.153C814.304 475.179 814.427 475.16 814.53 475.098L819.37 472.098C819.431 472.068 819.484 472.024 819.525 471.97C819.566 471.915 819.594 471.852 819.607 471.786C819.619 471.719 819.616 471.65 819.598 471.584C819.579 471.519 819.546 471.459 819.5 471.408V471.408Z" fill="#464A5F"/>
<path d="M812.67 476.138L809.57 471.678C809.537 471.629 809.494 471.586 809.444 471.553C809.395 471.52 809.339 471.497 809.28 471.486C809.221 471.475 809.161 471.476 809.103 471.488C809.044 471.5 808.989 471.524 808.94 471.558L804.36 474.648C804.26 474.715 804.191 474.819 804.167 474.937C804.142 475.054 804.165 475.177 804.23 475.278L807.1 479.688C807.166 479.79 807.268 479.861 807.386 479.887C807.504 479.913 807.628 479.892 807.73 479.828L812.57 476.828C812.627 476.794 812.676 476.747 812.713 476.692C812.75 476.636 812.774 476.573 812.784 476.507C812.793 476.441 812.788 476.374 812.768 476.31C812.749 476.246 812.715 476.187 812.67 476.138V476.138Z" fill="#464A5F"/>
<path d="M856.36 435.208L853.85 431.608C853.699 431.399 853.474 431.257 853.22 431.21C852.967 431.164 852.705 431.217 852.49 431.358L848.76 433.878C848.551 434.026 848.406 434.248 848.356 434.499C848.305 434.751 848.354 435.011 848.49 435.228L850.8 438.778C850.945 438.991 851.166 439.14 851.417 439.194C851.668 439.248 851.931 439.203 852.15 439.068L856.08 436.598C856.19 436.526 856.284 436.432 856.358 436.323C856.432 436.213 856.483 436.091 856.509 435.961C856.535 435.832 856.535 435.699 856.51 435.57C856.484 435.441 856.433 435.318 856.36 435.208V435.208Z" fill="#464A5F"/>
<path d="M849.24 440.138L846.72 436.548C846.571 436.34 846.348 436.198 846.097 436.149C845.846 436.101 845.586 436.151 845.37 436.288L841.64 438.808C841.431 438.956 841.286 439.178 841.236 439.429C841.185 439.681 841.234 439.941 841.37 440.158L843.68 443.708C843.823 443.92 844.041 444.069 844.29 444.125C844.54 444.18 844.801 444.139 845.02 444.008L848.96 441.528C849.07 441.456 849.164 441.362 849.238 441.253C849.312 441.143 849.363 441.021 849.389 440.891C849.415 440.762 849.415 440.629 849.39 440.5C849.364 440.371 849.313 440.248 849.24 440.138Z" fill="#464A5F"/>
<path d="M842.12 445.068L839.57 441.488C839.419 441.279 839.194 441.137 838.94 441.09C838.687 441.044 838.425 441.097 838.21 441.238L834.57 443.738C834.359 443.884 834.212 444.106 834.16 444.357C834.108 444.609 834.154 444.87 834.29 445.088L836.6 448.638C836.743 448.853 836.963 449.003 837.215 449.059C837.466 449.115 837.73 449.072 837.95 448.938L841.89 446.468C841.997 446.392 842.089 446.295 842.158 446.183C842.228 446.071 842.275 445.946 842.296 445.816C842.318 445.686 842.313 445.553 842.283 445.425C842.253 445.296 842.197 445.175 842.12 445.068V445.068Z" fill="#464A5F"/>
<path d="M834.99 449.998L832.47 446.408C832.319 446.202 832.096 446.061 831.845 446.015C831.594 445.968 831.334 446.02 831.12 446.158L827.39 448.668C827.181 448.816 827.036 449.038 826.986 449.289C826.935 449.541 826.984 449.801 827.12 450.018L829.43 453.568C829.573 453.78 829.791 453.929 830.04 453.985C830.29 454.04 830.551 453.999 830.77 453.868L834.71 451.398C834.821 451.326 834.917 451.231 834.992 451.121C835.066 451.011 835.118 450.887 835.144 450.757C835.17 450.627 835.17 450.492 835.143 450.362C835.117 450.232 835.065 450.108 834.99 449.998Z" fill="#464A5F"/>
<path d="M828.19 455.378L825.06 450.918C825.026 450.868 824.982 450.826 824.932 450.792C824.881 450.759 824.824 450.737 824.765 450.726C824.705 450.714 824.644 450.715 824.585 450.728C824.526 450.74 824.47 450.764 824.42 450.798L819.84 453.888C819.74 453.955 819.671 454.059 819.647 454.177C819.622 454.294 819.645 454.417 819.71 454.518L822.58 458.938C822.613 458.989 822.656 459.033 822.707 459.067C822.757 459.101 822.813 459.124 822.873 459.137C822.932 459.149 822.994 459.149 823.053 459.137C823.113 459.125 823.17 459.102 823.22 459.068L828.05 456.068C828.109 456.036 828.16 455.992 828.2 455.938C828.24 455.884 828.267 455.822 828.281 455.756C828.294 455.69 828.293 455.622 828.277 455.557C828.261 455.492 828.232 455.431 828.19 455.378Z" fill="#464A5F"/>
<path d="M821.88 459.748L818.75 455.288C818.717 455.239 818.674 455.196 818.624 455.163C818.575 455.13 818.519 455.107 818.46 455.096C818.402 455.085 818.341 455.086 818.283 455.098C818.224 455.11 818.169 455.134 818.12 455.168L813.57 458.248C813.47 458.317 813.4 458.423 813.376 458.542C813.351 458.661 813.375 458.785 813.44 458.888L816.31 463.298C816.377 463.398 816.48 463.467 816.597 463.493C816.714 463.519 816.837 463.5 816.94 463.438L821.78 460.438C821.836 460.403 821.883 460.355 821.919 460.3C821.955 460.244 821.979 460.182 821.988 460.116C821.998 460.051 821.993 459.984 821.974 459.92C821.956 459.857 821.923 459.798 821.88 459.748V459.748Z" fill="#464A5F"/>
<path d="M814.82 464.638L811.69 460.168C811.618 460.071 811.511 460.005 811.392 459.985C811.273 459.964 811.15 459.991 811.05 460.058L806.48 463.138C806.38 463.207 806.31 463.313 806.286 463.432C806.261 463.551 806.285 463.675 806.35 463.778L809.22 468.188C809.286 468.29 809.388 468.361 809.506 468.387C809.624 468.413 809.748 468.392 809.85 468.328L814.69 465.328C814.748 465.295 814.798 465.25 814.837 465.196C814.876 465.141 814.903 465.079 814.915 465.013C814.927 464.948 814.925 464.88 814.909 464.815C814.892 464.751 814.862 464.69 814.82 464.638V464.638Z" fill="#464A5F"/>
<path d="M807.98 469.368L804.85 464.908C804.816 464.858 804.772 464.816 804.722 464.782C804.671 464.749 804.614 464.727 804.555 464.715C804.495 464.704 804.434 464.705 804.375 464.718C804.316 464.73 804.26 464.754 804.21 464.788L799.64 467.878C799.59 467.911 799.546 467.953 799.512 468.002C799.478 468.052 799.455 468.107 799.443 468.166C799.43 468.225 799.43 468.285 799.442 468.344C799.453 468.403 799.477 468.459 799.51 468.508L802.38 472.928C802.412 472.979 802.455 473.022 802.504 473.056C802.553 473.09 802.609 473.114 802.668 473.126C802.726 473.138 802.787 473.138 802.846 473.127C802.904 473.115 802.96 473.092 803.01 473.058L807.85 470.058C807.907 470.024 807.956 469.978 807.994 469.924C808.032 469.869 808.058 469.808 808.07 469.742C808.082 469.677 808.08 469.61 808.065 469.546C808.049 469.481 808.021 469.421 807.98 469.368V469.368Z" fill="#464A5F"/>
<path d="M805.83 480.878L802.7 476.408C802.628 476.311 802.521 476.245 802.402 476.225C802.283 476.204 802.16 476.231 802.06 476.298L797.48 479.378C797.38 479.447 797.31 479.553 797.286 479.672C797.261 479.791 797.285 479.915 797.35 480.018L800.22 484.428C800.287 484.528 800.39 484.597 800.507 484.623C800.624 484.649 800.747 484.63 800.85 484.568L805.69 481.568C805.75 481.537 805.803 481.493 805.844 481.44C805.885 481.386 805.913 481.323 805.926 481.257C805.94 481.191 805.938 481.122 805.921 481.057C805.905 480.991 805.874 480.93 805.83 480.878V480.878Z" fill="#464A5F"/>
<path d="M798.99 485.608L795.86 481.148C795.826 481.098 795.782 481.056 795.732 481.022C795.681 480.989 795.624 480.967 795.565 480.956C795.505 480.944 795.444 480.945 795.385 480.958C795.326 480.97 795.27 480.994 795.22 481.028L790.64 484.118C790.54 484.185 790.471 484.289 790.447 484.407C790.422 484.524 790.445 484.647 790.51 484.748L793.38 489.158C793.413 489.21 793.455 489.254 793.505 489.289C793.555 489.324 793.611 489.349 793.671 489.362C793.73 489.375 793.792 489.376 793.852 489.365C793.912 489.354 793.969 489.331 794.02 489.298L798.85 486.298C798.91 486.267 798.963 486.223 799.004 486.17C799.045 486.116 799.073 486.053 799.086 485.987C799.1 485.921 799.098 485.852 799.081 485.787C799.065 485.721 799.033 485.66 798.99 485.608V485.608Z" fill="#464A5F"/>
<path d="M809.72 457.278L806.77 453.068C806.676 452.938 806.534 452.849 806.375 452.821C806.217 452.793 806.053 452.828 805.92 452.918L801.57 455.828C801.436 455.92 801.344 456.06 801.312 456.219C801.28 456.377 801.312 456.542 801.4 456.678L804.1 460.838C804.19 460.974 804.329 461.068 804.488 461.102C804.647 461.136 804.813 461.106 804.95 461.018L809.51 458.148C809.583 458.107 809.647 458.051 809.698 457.984C809.749 457.918 809.785 457.841 809.805 457.759C809.825 457.677 809.827 457.593 809.813 457.51C809.798 457.427 809.767 457.348 809.72 457.278V457.278Z" fill="#464A5F"/>
<path d="M802.88 462.008L799.93 457.808C799.885 457.742 799.827 457.685 799.76 457.641C799.693 457.597 799.617 457.566 799.538 457.552C799.459 457.537 799.378 457.538 799.299 457.554C799.221 457.571 799.146 457.603 799.08 457.648L794.76 460.568C794.627 460.658 794.534 460.796 794.503 460.953C794.471 461.111 794.502 461.274 794.59 461.408L797.29 465.568C797.38 465.703 797.519 465.798 797.677 465.834C797.835 465.869 798.001 465.842 798.14 465.758L802.71 462.888C802.779 462.842 802.839 462.782 802.885 462.713C802.931 462.643 802.963 462.566 802.979 462.484C802.995 462.402 802.994 462.318 802.977 462.236C802.96 462.154 802.927 462.077 802.88 462.008V462.008Z" fill="#464A5F"/>
<path d="M796.04 466.748L793.04 462.538C792.947 462.408 792.808 462.32 792.651 462.292C792.494 462.264 792.332 462.298 792.2 462.388L787.87 465.298C787.736 465.39 787.644 465.53 787.612 465.689C787.58 465.847 787.612 466.012 787.7 466.148L790.4 470.308C790.49 470.444 790.629 470.538 790.788 470.572C790.947 470.606 791.113 470.576 791.25 470.488L795.82 467.618C795.894 467.578 795.959 467.523 796.011 467.456C796.063 467.39 796.1 467.313 796.121 467.231C796.141 467.15 796.145 467.065 796.131 466.981C796.117 466.898 796.086 466.819 796.04 466.748V466.748Z" fill="#464A5F"/>
<path d="M789.3 471.618L786.17 467.148C786.098 467.051 785.991 466.985 785.872 466.965C785.753 466.944 785.63 466.971 785.53 467.038L780.95 470.118C780.851 470.189 780.784 470.295 780.761 470.414C780.739 470.533 780.764 470.657 780.83 470.758L783.7 475.168C783.766 475.27 783.868 475.341 783.986 475.367C784.104 475.393 784.228 475.372 784.33 475.308L789.17 472.308C789.228 472.275 789.278 472.23 789.317 472.176C789.356 472.121 789.383 472.059 789.395 471.993C789.407 471.928 789.405 471.86 789.389 471.795C789.372 471.731 789.342 471.67 789.3 471.618V471.618Z" fill="#464A5F"/>
<path d="M870.24 425.488L867.57 421.628C867.418 421.421 867.191 421.28 866.938 421.236C866.685 421.191 866.424 421.246 866.21 421.388L855.57 428.798C855.365 428.947 855.224 429.168 855.176 429.417C855.128 429.666 855.176 429.923 855.31 430.138L857.87 434.078C857.943 434.187 858.038 434.281 858.147 434.354C858.257 434.426 858.38 434.477 858.509 434.502C858.638 434.527 858.771 434.526 858.9 434.5C859.029 434.473 859.151 434.422 859.26 434.348L869.99 426.838C870.196 426.688 870.337 426.464 870.383 426.213C870.43 425.962 870.378 425.703 870.24 425.488Z" fill="#464A5F"/>
<path d="M801.12 473.958L797.8 469.268C797.766 469.218 797.722 469.175 797.671 469.142C797.62 469.109 797.563 469.087 797.503 469.077C797.444 469.067 797.382 469.068 797.323 469.082C797.264 469.096 797.209 469.122 797.16 469.158L785.74 477.158C785.642 477.227 785.575 477.331 785.552 477.449C785.53 477.566 785.554 477.688 785.62 477.788L788.75 482.608C788.783 482.66 788.827 482.705 788.878 482.74C788.929 482.775 788.987 482.799 789.047 482.811C789.108 482.824 789.171 482.823 789.231 482.811C789.292 482.798 789.349 482.774 789.4 482.738L801.01 474.608C801.11 474.536 801.177 474.427 801.198 474.306C801.219 474.184 801.191 474.059 801.12 473.958V473.958Z" fill="#464A5F"/>
<path d="M837.45 438.088L834.45 433.638C834.381 433.538 834.276 433.468 834.156 433.444C834.037 433.42 833.913 433.443 833.81 433.508L808.46 450.608C808.41 450.641 808.366 450.683 808.332 450.732C808.298 450.782 808.275 450.837 808.263 450.896C808.25 450.955 808.25 451.015 808.262 451.074C808.273 451.133 808.297 451.189 808.33 451.238L811.45 456.038C811.483 456.09 811.527 456.135 811.578 456.17C811.629 456.205 811.687 456.229 811.747 456.241C811.808 456.254 811.871 456.253 811.931 456.241C811.992 456.228 812.049 456.204 812.1 456.168L837.38 438.728C837.473 438.652 837.533 438.542 837.546 438.423C837.559 438.303 837.524 438.183 837.45 438.088V438.088Z" fill="#464A5F"/>
<path opacity="0.1" d="M837.57 422.808L824.09 403.218C823.717 402.674 823.144 402.299 822.496 402.175C821.848 402.052 821.177 402.189 820.63 402.558L783.5 427.488C783.227 427.673 782.992 427.91 782.811 428.186C782.629 428.461 782.503 428.77 782.441 429.094C782.379 429.418 782.381 429.752 782.448 430.075C782.515 430.398 782.645 430.705 782.83 430.978L796.57 451.128C796.755 451.402 796.992 451.636 797.268 451.818C797.544 451.999 797.853 452.124 798.177 452.186C798.502 452.247 798.835 452.244 799.159 452.175C799.482 452.107 799.788 451.976 800.06 451.788L836.93 426.278C837.2 426.093 837.432 425.856 837.61 425.581C837.789 425.306 837.911 424.999 837.971 424.676C838.03 424.354 838.025 424.023 837.957 423.702C837.888 423.382 837.757 423.078 837.57 422.808V422.808Z" fill="black"/>
<path d="M838.19 422.928L824.71 403.338C824.335 402.796 823.763 402.423 823.115 402.299C822.468 402.176 821.798 402.312 821.25 402.678L784.17 427.628C783.895 427.811 783.659 428.047 783.475 428.323C783.292 428.598 783.165 428.907 783.101 429.231C783.038 429.556 783.04 429.89 783.107 430.214C783.173 430.538 783.304 430.845 783.49 431.118L797.19 451.248C797.375 451.522 797.612 451.756 797.888 451.938C798.164 452.119 798.473 452.244 798.797 452.306C799.122 452.367 799.455 452.364 799.779 452.295C800.102 452.227 800.408 452.096 800.68 451.908L837.57 426.398C837.839 426.211 838.068 425.973 838.245 425.698C838.422 425.422 838.542 425.114 838.6 424.792C838.657 424.469 838.651 424.139 838.58 423.819C838.51 423.499 838.377 423.197 838.19 422.928Z" fill="#939498"/>
<path d="M921.78 454.588L893.18 445.048L801.45 508.768L829.84 518.018C830.606 518.268 831.419 518.337 832.215 518.219C833.012 518.101 833.77 517.799 834.43 517.338L922.04 456.418C922.21 456.318 922.347 456.169 922.433 455.99C922.519 455.812 922.55 455.612 922.522 455.416C922.494 455.22 922.409 455.037 922.277 454.89C922.145 454.742 921.972 454.637 921.78 454.588V454.588Z" fill="#536DFE"/>
<defs>
<filter id="filter0_d" x="0" y="-108" width="1188" height="1168" filterUnits="userSpaceOnUse" color-interpolation-filters="sRGB">
<feFlood flood-opacity="0" result="BackgroundImageFix"/>
<feColorMatrix in="SourceAlpha" type="matrix" values="0 0 0 0 0 0 0 0 0 0 0 0 0 0 0 0 0 0 127 0"/>
<feOffset dx="7" dy="7"/>
<feGaussianBlur stdDeviation="83.5"/>
<feColorMatrix type="matrix" values="0 0 0 0 0 0 0 0 0 0 0 0 0 0 0 0 0 0 0.14 0"/>
<feBlend mode="normal" in2="BackgroundImageFix" result="effect1_dropShadow"/>
<feBlend mode="normal" in="SourceGraphic" in2="effect1_dropShadow" result="shape"/>
</filter>
</defs>
</svg>
