<svg width="589" height="178" viewBox="0 0 589 178" fill="none" xmlns="http://www.w3.org/2000/svg">
<path fill-rule="evenodd" clip-rule="evenodd" d="M0 7.62939e-06V0H229.4L229.383 7.62939e-06H0ZM229.414 7.62939e-06C232.105 0.00303204 233.606 0.906366 237.2 4.69998C240.9 8.79998 245.8 15.3 248.3 19.7C248.7 20.3 247.5 22.8 245.7 25.2C241 31.4 233 44.4 233 45.9C233 47.2 238.4 47 245.8 45.5C248.6 44.9 249 45 249 46.9C249 48.1 248.1 50.7 247 52.8C242.1 62 236.1 65.8 224.9 66.7C217.2 67.3 216.8 67.4 214.1 70.9C208 78.7 202.5 88.7 198 100C196.8 103 195.4 106.3 194.9 107.2C193.3 110.3 193.9 111 197.3 110.3C203 109.2 214.5 103.2 219.3 98.8C221.8 96.4 224.6 94 225.5 93.5C226.4 92.9 229 89.1 231.2 85C233.4 80.9 235.8 76.8 236.6 75.9C237.4 75.1 238 74 238 73.6C238 71.9 274 15.9 277 13C277.206 12.7942 278.212 11.5059 279.533 9.81319L279.538 9.80718L279.551 9.79C280.152 9.02137 280.816 8.17034 281.5 7.29999C283.6 4.39999 286.2 1.69999 287.2 1.39999C293.3 -0.500006 307 7.59998 307 13.2C307 14.8 297.3 29.2 295 31C294.7 31.3 292.2 34.4 289.5 38L288.986 38.6858L288.323 39.5705C285.575 43.2391 281.674 48.4461 278.9 52C272 61.1 258.6 82 259.3 82.6C259.6 82.9 263.9 79.4 268.8 74.9C286.4 59.1 293.2 55.1 300.9 56.4C302.8 56.7 305.5 58.1 306.9 59.5C309.2 61.7 309.4 62.8 309.4 69.4C309.3 75.7 308.7 78.2 305 87.1C295.9 109.1 283.9 124.7 271.8 130.3C262.4 134.7 255.9 133.3 249.3 125.5C247.3 123 244.8 121 244 121C242.4 121 236 128.8 236 130.7C236 131.2 234.9 132.7 233.6 133.9C230.3 137 227.2 136.2 222 131C217.9 126.9 217.4 125.1 217.9 115.7C218.1 113.7 218 112 217.8 112C217.6 112 213.9 115.5 209.5 119.8C193.5 135.5 181.8 136.9 175.3 123.9C173.4 120.3 173.1 118.3 173.4 112.5C173.9 103.7 175.3 96.1 176.8 93.3C177.5 92.1 178 90.1 178 88.8C178 87.5 178.4 86 178.9 85.5C179.4 84.9 180.1 83.4 180.5 82C181.294 79.6193 181.202 79.6985 177.686 82.7256L177.686 82.7257L177.6 82.8C175 85 172.9 86 170.6 86C165.2 86 164.5 84.1 167.5 77.9C170.6 71.4 170.6 71 167.4 71C162.3 71 151 82.5 151 87.7C151 89 152 90.8 153.2 91.8C154.4 92.7 157.4 95.3 159.8 97.6C164.1 101.5 164.3 101.9 164.2 107.2C164.2 113.8 161.6 119.4 156.6 123.8C150.2 129.4 140.3 133 131 133C125.2 133 124 132.7 120.8 130C117.2 127 114.5 121.6 115.2 118.3C115.4 117 116.9 116.6 123 116.5C132.6 116.2 135.6 115.5 140.5 112.1C145.6 108.7 146 106 142.1 102.7C140.4 101.3 138.7 100 138.2 99.8C137.6 99.6 132.1 92.8 130.2 90C130 89.8 129.6 90.1 129.2 90.7C128.887 91.1689 126.376 93.9585 123.194 97.4939L123.192 97.4957L123.191 97.4965L123.191 97.4968C122.302 98.4845 121.361 99.5303 120.4 100.6C115.9 105.5 109.4 112.8 106 116.7C94.7 129.8 85.1 134.2 79.4 128.9C76.2 125.9 73 119.8 73 116.7C73 115.4 73.9 111.7 75.1 108.4C76.2 105.2 77.4 101.6 77.7 100.5C78 99.4 80.9 93.4 84.1 87.1C89.3 77 89.7 75.8 87.7 76.5C87.2864 76.6034 86.766 76.7424 86.2041 76.8925L86.2024 76.8929L86.2015 76.8932L86.2011 76.8933L86.1994 76.8938C85.1321 77.1789 83.9162 77.5037 83 77.7C81.7725 77.8753 79.238 78.5889 76.9469 79.2339C76.625 79.3245 76.308 79.4138 76 79.5C72.1 80.6 66 81.9 57.3 83.6C55.7 83.9 53.8 86.8 49.6 95.2C43.8 107.1 34.9 122.4 31.5 126.2C30.4 127.5 28.6 129.9 27.6 131.5C24.8 135.9 16 144.5 12.3 146.4C8.3 148.4 3.4 148.5 2.2 146.5C1.3 144.8 2.8 136.6 4.9 131.5C6.3 128.1 10.6 119.6 30.3 80.9C47.9 46.1 53.6 35.4 57.2 30.2C60.2 25.9 60.3 23 57.6 23C56.9 23 55.5 21.9 54.6 20.6C52.7 17.5 52.1 4.2 53.9 3C55.6 2 127.9 3.00001 130.7 4.10001C132.1 4.60001 133.3 6.09999 133.6 7.79999C134.2 10.6 134.3 10.7 139.2 10.2C141.9 9.89998 145.2 10.2 146.6 10.9C146.82 11.0013 147.065 11.1141 147.328 11.2349C148.62 11.8293 150.336 12.6182 151.5 13.2C157 15.7 155.6 20.5 147 28.3C141.4 33.3 134 37.8 128.4 39.4C125.7 40.2 121.1 38.5 120.4 36.5C119.8 34.9 125.1 23.7 127.7 21.2C129.8 19.1 129.3 17.7 126.8 18.5C125.5 18.9 120.2 19.8 115 20.6C95.7 23.2 93.5 23.6 91.3 24.8C90 25.5 89 26.4 89 26.9C89 27.6 80.6 42.9 78 47C77.5 47.8 76.1 50.4 75 52.7C73.9 55 72.6 57.2 72 57.5C71.5 57.8 71 58.8 71 59.6C71 60.7 73 61 81.4 61C93.1 61 95.4 62 94.5 66.8C94.2 68.3 94.3 68.8 94.6 68C95 67.2 95.6 66.3 96 66C96.3 65.7 97.7 63.7 99 61.5C104.1 52.9 107.1 50 110.7 50C116.4 50 128.7 57.7 127.6 60.6C127.3 61.3 124.5 65.3 121.3 69.6C115.4 77.5 100.6 99.3 99.4 102C99 102.8 98 104.3 97.2 105.2C95.9 106.8 95.9 107 97.3 107C98.1 107 99 106.6 99.2 106.2C99.4 105.8 101.8 103.7 104.5 101.6C115.7 93.2 131 79.3 133.1 75.5C139.6 64.2 143.7 60 153.9 54.6C158.6 52.1 160.3 51.7 167.6 51.8C174.4 51.9 176.7 52.3 179.5 54C183.5 56.5 186 60.6 186 64.7C186 68.2 186.8 67.2 191.5 58.5C193.6 54.6 195.9 50.8 196.6 49.9C197.4 49.1 198 48 198 47.6C198 47.2 199.1 45.4 200.5 43.6C201.9 41.8 203 40 203 39.6C203 39.2 203.5 38.4 204 37.7C207.7 33.3 223 9.19998 223 7.69998C223 6.69998 223.7 4.6 224.5 3C225.797 0.604938 226.696 0.00247646 229.383 7.62939e-06H229.414ZM229.414 7.62939e-06L343.8 0H229.4L229.414 7.62939e-06ZM588.1 56.8C587.6 55.5 586.3 53.5 585.3 52.3C583.8 50.7 581.9 49.9 577.9 49.6C571.4 49 570 49.3 563.2 52.8C555.9 56.5 548.9 64.2 533 86.2C525.6 96.4 519.4 104.7 519.2 104.5C518.4 103.8 522.5 97.5 534.5 81C549.3 60.6 549.8 59.7 547.9 57.4C545.8 54.9 539.2 52.3 533 51.6C526.5 50.8 525.5 51.6 520 61.5C518.2 64.8 515.8 69.1 514.7 71C513.6 72.9 509.8 80.1 506.3 87C501.4 96.5 498.5 100.8 494.4 104.7C489.4 109.6 486 111.3 486 109.1C486 107.4 489.3 100.5 492.6 95.3C494.5 92.4 496 89.6 496 89.1C496 88.6 496.4 88 496.8 87.8C497.3 87.6 499.3 84.8 501.4 81.5C503.4 78.2 506.1 74.3 507.2 72.8C509 70.5 509.2 69.7 508.2 67.6C506.7 64.2 502.2 62.1 495.2 61.4C487.3 60.5 485.3 61.7 470.9 75.7C464.4 82.1 459 86.9 459 86.5C459 86.1 461.9 81.1 465.5 75.5C469.1 69.9 472 64.5 472 63.4C471.9 58.9 468.2 57 459.1 56.8C451.4 56.7 449.8 57.5 442.9 65.5C436.8 72.5 416.7 92 416.2 91.5C415.3 90.7 424.6 77.8 429.4 73C432 70.5 434 67.7 434 66.5C434 61.4 422.6 55 413.5 55H408.1L402.8 63.2C393.8 76.9 386.9 89.5 383 99.3C381.4 103.4 379.4 106.1 376.3 108.7C373.9 110.7 371.7 112.1 371.5 111.8C370.8 111.1 374 103.1 376.7 98.8C378 96.7 379 94.9 379 94.6C379 94.4 382.4 89.2 386.6 83C395.4 69.9 395.7 67.8 389.5 64.3C386.5 62.6 383.9 62 379.1 62C373.2 62 372.3 62.3 368.1 65.7C365.6 67.7 355.5 77.3 345.8 87.1C336.1 96.8 326.6 105.8 324.8 107.1L321.5 109.5L324.4 104.5C330.1 94.8 338.1 83.1 346.8 71.7C352.1 64.9 351.9 63.8 344.2 57.3C337.5 51.6 333.7 49.5 331.7 50.3C329.6 51.1 317 69 312.2 78C309.9 82.1 306.8 89.1 305.1 93.5C303.4 97.9 301.5 102.3 301 103.2C299.5 105.9 299.8 116.7 301.5 120C302.3 121.6 304.5 124 306.3 125.4C309.2 127.6 310.7 128 316.4 128C324.3 128 328.4 125.8 334.3 118.7C336.4 116.1 338.6 113.5 339.3 112.8C340 112.1 342 109.6 343.8 107.2C345.7 104.9 347.5 103 347.8 103C348.2 103 348.4 107 348.2 112C347.9 121.2 348.6 123.5 353.5 128.6C355.2 130.4 360.7 133 362.7 133C365.5 133 371.2 130.7 374.7 128.2C378.3 125.6 379.3 125.5 380.9 127.3C381.5 128.1 384 129.7 386.5 131C391 133.3 391.1 133.3 396.6 131.6C402.5 129.7 404.6 127.9 415 116C418.5 111.9 422.7 107.1 424.2 105.5C425.7 103.8 427.6 101.6 428.4 100.5C430.9 97.2 430.4 100.9 427.5 106.8C426.1 109.7 425 112.6 425 113.3C425 114 424.5 115.1 424 115.6C422.4 117.2 422.4 125.6 424 127.5C425.6 129.4 432.3 133 434.3 133C437.3 133 444.1 126.5 450 117.8C451.496 115.62 453.083 113.295 454.519 111.19L454.523 111.184L454.524 111.183L454.525 111.182L454.536 111.165C456.454 108.355 458.101 105.942 458.9 104.8C460.4 102.7 461.8 101.1 462.3 101C463.3 101 463.2 105.8 462 107.9C461.4 109.1 461.4 111.9 462.2 116C463.1 121.2 463.9 122.9 467.4 126.5C472.3 131.7 476.6 132.8 482.8 130.7C485.1 129.9 487 129.4 487 129.6C487 130.1 484.1 137.1 480.2 146C477.4 152.5 475.3 160.6 474.5 167.7C473.9 173.1 474.1 174.1 475.9 175.9C478.5 178.5 479.5 178.5 481.8 176.2C484.6 173.3 497.3 156.5 505.5 145C507.7 141.9 513.1 135 517.4 129.7C523.6 122.2 525.7 120.3 526.7 121.2C527.4 121.8 528 122.8 528 123.5C528 124.2 529.6 126.2 531.5 127.9C534.6 130.6 535.9 131 540.5 131C544 131 547.3 130.3 549.7 129C556.6 125.4 568 112.5 576.7 98.5C579.5 94 586 80.2 587.5 75.7C589.2 70.4 589.5 60.4 588.1 56.8ZM272.1 88.8C262.8 98.2 259.2 102.5 258.7 104.8C257.7 109.8 258.7 111.3 262.8 110.6C268.6 109.7 274.5 102.9 283 87.5C284.8 84.2 286.6 81.1 287.1 80.5C288.5 79 288.1 76 286.5 76C285.7 76 279.2 81.8 272.1 88.8ZM546 89.5C546 88.7 553 79 557.4 73.7C564.9 64.7 565 69.1 557.7 83.9C552.3 94.7 549.9 99.1 549 100C548.815 100.185 547.942 101.325 546.736 102.9C545.99 103.875 545.117 105.015 544.2 106.2C541.9 109.4 539.5 112 539 112C537.9 112 538.8 106 540.1 104.5C540.6 104 541 102.9 541 102C541 101.1 542.1 98 543.5 95.2C544.9 92.3 546 89.8 546 89.5Z" fill="#2B96DC"/>
</svg>
